<svg width="136" height="136" viewBox="0 0 136 136" fill="none" xmlns="http://www.w3.org/2000/svg">
<g filter="url(#filter0_d)">
<rect x="24" y="16" width="88" height="88" rx="44" fill="#3B465A"/>
<path fill-rule="evenodd" clip-rule="evenodd" d="M57.9518 28.6152C60.1661 28.1724 63.7054 28.9771 66.4035 33.2941C69.2856 37.9054 70.4746 43.1619 71.0796 47.3969L71.2143 48.3393L72.0306 48.8291C73.3312 49.6094 75.9647 51.9177 78.5019 54.6086C79.7453 55.9273 80.9129 57.2827 81.8334 58.5131C82.787 59.7877 83.3587 60.7761 83.5622 61.3865C84.1608 63.1824 85.1531 64.7715 86.1394 66.021L86.1281 66.0244L84.9171 75.107C81.543 75.5224 75.8014 75.9399 72.936 76.119L73.1432 79.4337L69.9601 80.5313V77.974C69.5022 77.974 68.7388 77.8316 67.8477 77.5827C66.9988 77.3456 66.1992 77.0595 65.7429 76.877L64.9737 76.5693L64.2123 76.8957C63.5641 77.1735 62.4052 77.6091 61.123 77.972C59.8127 78.3429 58.5239 78.594 57.5601 78.594C56.1849 78.594 52.7993 78.9211 49.284 79.3032C45.7056 79.6921 41.8195 80.1585 39.332 80.4694L39.8282 84.4385C42.3007 84.1294 46.1646 83.6658 49.7162 83.2797C53.3309 82.8868 56.4553 82.594 57.5601 82.594C59.0763 82.594 60.7841 82.2251 62.2122 81.8209C63.2722 81.5209 64.2606 81.1773 65.028 80.8806C65.5341 81.0607 66.14 81.2588 66.7715 81.4352C66.8747 81.464 66.9806 81.4929 67.0888 81.5214L63.9189 82.6145L84.6703 94.5864L96.724 89.8988L95.2742 86.1708L87.2222 89.3021L88.6833 77.1261L89.7501 69.1252L109.067 63.4181L107.934 59.582L90.3677 64.7718C89.3931 63.7968 88.0095 62.0794 87.3569 60.1216C86.9404 58.8721 86.0396 57.458 85.0363 56.1169C83.9999 54.7317 82.7263 53.2583 81.4122 51.8646C79.1946 49.5125 76.7041 47.2214 74.9058 45.9397C74.2266 41.6155 72.8962 36.1351 69.7955 31.1741C66.2937 25.5711 61.153 23.8958 57.1673 24.6929C55.0977 25.1068 53.3657 26.3145 52.0378 27.6424C50.6998 28.9803 49.6507 30.5595 48.9507 31.9596C48.1175 33.6261 47.8095 36.1793 47.8095 38.3566C47.8095 39.4926 47.8931 40.6384 48.0723 41.6576C48.2414 42.6198 48.5316 43.6877 49.0754 44.5035C49.4041 44.9964 49.4611 45.4093 49.3868 45.8553C49.3289 46.2021 49.1829 46.6046 48.9312 47.0769C47.0048 47.4126 45.4404 48.5203 44.3065 49.6492C42.949 51.0007 41.9865 52.5946 41.4859 53.7105L32.1992 72.903L35.7999 74.6452L45.114 55.396L45.1272 55.3664C45.4573 54.6236 46.1635 53.4448 47.1286 52.4839C48.1051 51.5117 49.1248 50.9741 50.1195 50.9741H51.1899L51.7836 50.0835C52.4702 49.0536 53.1099 47.8473 53.3323 46.5129C53.568 45.0989 53.315 43.6517 52.4036 42.2847C52.3275 42.1704 52.1526 41.7658 52.0118 40.9649C51.881 40.221 51.8095 39.313 51.8095 38.3566C51.8095 36.3488 52.1216 34.5621 52.5284 33.7485C53.0683 32.6686 53.8792 31.4578 54.8663 30.4708C55.8634 29.4736 56.9214 28.8213 57.9518 28.6152ZM73.5192 83.5351L84.333 79.8063L83.2143 89.1284L73.5192 83.5351Z" fill="#F0663B"/>
</g>
<defs>
<filter id="filter0_d" x="0" y="0" width="136" height="136" filterUnits="userSpaceOnUse" color-interpolation-filters="sRGB">
<feFlood flood-opacity="0" result="BackgroundImageFix"/>
<feColorMatrix in="SourceAlpha" type="matrix" values="0 0 0 0 0 0 0 0 0 0 0 0 0 0 0 0 0 0 127 0"/>
<feOffset dy="8"/>
<feGaussianBlur stdDeviation="12"/>
<feColorMatrix type="matrix" values="0 0 0 0 0.110156 0 0 0 0 0.136929 0 0 0 0 0.1875 0 0 0 0.2 0"/>
<feBlend mode="normal" in2="BackgroundImageFix" result="effect1_dropShadow"/>
<feBlend mode="normal" in="SourceGraphic" in2="effect1_dropShadow" result="shape"/>
</filter>
</defs>
</svg>
