<svg width="136" height="136" viewBox="0 0 136 136" fill="none" xmlns="http://www.w3.org/2000/svg">
<g filter="url(#filter0_d)">
<rect x="24" y="16" width="88" height="88" rx="44" fill="#3B465A"/>
<path fill-rule="evenodd" clip-rule="evenodd" d="M74.1731 30.0073C76.2094 30.0557 78.3242 30.3435 79.7821 30.7693C81.5435 31.2839 83.0254 32.5085 84.0888 33.8675C85.1575 35.2333 85.9505 36.9198 86.1851 38.5988C86.4014 40.1467 85.9112 41.8536 85.4225 43.1298C85.0972 43.9794 84.7132 44.786 84.3554 45.4567C84.6154 46.1501 84.7806 47.0031 84.7806 47.9732C84.7806 49.4749 84.0789 50.8856 83.3354 51.9174C83.0999 52.244 82.8381 52.5636 82.557 52.8651C82.7927 52.9985 83.0638 53.1452 83.3745 53.3072C83.5568 53.3389 83.7247 53.3796 83.8645 53.4166C84.1874 53.5019 84.5439 53.6186 84.9146 53.7544C85.6584 54.0269 86.5444 54.4078 87.4806 54.8625C89.3404 55.7656 91.5255 57.0219 93.2797 58.4168C95.3866 60.0922 96.2422 62.3299 96.8085 64.3567C96.9973 65.0322 97.1526 65.6643 97.3012 66.2695L97.3014 66.2701L97.3014 66.2704L97.3015 66.2705C97.6103 67.5277 97.8905 68.6688 98.3834 69.8414C99.6988 71.4822 100.854 74.1052 101.748 76.5055C102.724 79.1226 103.51 81.8132 103.94 83.5085L100.062 84.4917C99.6617 82.9118 98.9171 80.3622 98.0003 77.9027C97.0504 75.3547 96.0272 73.2175 95.1527 72.2116L94.9561 71.9856L94.8345 71.7119C94.1211 70.1074 93.6883 68.3491 93.3259 66.8771L93.3259 66.8768C93.1968 66.3527 93.0768 65.8649 92.9561 65.4332C92.4547 63.6389 91.8865 62.4195 90.7901 61.5476C89.3408 60.3951 87.4328 59.286 85.7332 58.4606C84.8897 58.051 84.1296 57.7268 83.5386 57.5103C83.2419 57.4016 83.0089 57.3278 82.8424 57.2838C82.7746 57.2659 82.7302 57.2562 82.706 57.2514H82.2991L81.8703 57.0322C80.7978 56.484 79.8526 55.9586 79.1611 55.4283C78.5705 54.9755 77.5772 54.0867 77.5772 52.704V51.4803L78.6669 50.9232C79.0253 50.74 79.6 50.259 80.0903 49.5787C80.5925 48.8819 80.7806 48.2911 80.7806 47.9732C80.7806 47.4638 80.6978 47.111 80.6256 46.9042C80.5992 46.8288 80.5751 46.7752 80.5586 46.7422L79.5412 45.7019L80.3708 44.369C80.7283 43.7947 81.273 42.7805 81.687 41.6993C82.1297 40.5434 82.2921 39.6423 82.2236 39.1523C82.1023 38.2839 81.6495 37.2411 80.9386 36.3325C80.2223 35.417 79.3906 34.8221 78.6605 34.6089C77.6269 34.3069 75.8757 34.0489 74.0783 34.0062C72.2108 33.9619 70.7051 34.1629 69.9654 34.5047C68.7261 35.0773 67.5958 36.1763 67.0227 37.5887L67.8815 37.1497L66.2373 48.3568L66.2149 48.4483C66.1306 48.7928 66.0315 49.4232 66.0406 50.0552C66.0506 50.7552 66.1885 51.0861 66.2407 51.1572C66.8356 51.9682 67.356 53.1634 67.7654 54.1037L67.7654 54.1037L67.7657 54.1045L67.7661 54.1054C67.8383 54.2712 67.907 54.4291 67.9721 54.5755C68.2206 55.1345 68.4458 55.6123 68.669 56.0009C68.904 56.4099 69.0609 56.5833 69.1205 56.6335L71.541 58.6739L68.6589 59.9835C68.2262 60.1801 67.8 60.3689 67.3834 60.5533C66.1521 61.0985 65.0048 61.6065 64.0235 62.1709C63.3835 62.5389 62.9287 62.8697 62.6373 63.1605C62.4969 63.3007 62.4175 63.409 62.3746 63.4821C62.3539 63.5175 62.343 63.5425 62.3374 63.5574C62.3321 63.5718 62.331 63.5785 62.3309 63.5792C62.3096 63.7095 62.2896 63.8348 62.2709 63.9552L67.6752 64.1153L70.563 77.6889L73.3004 79.8828C74.7965 79.9954 77.7414 80.0987 80.7971 79.8296C84.2427 79.5261 90.6191 77.8875 93.4504 77.0771L94.5511 80.9227C91.7486 81.7249 85.0264 83.4726 81.148 83.8142C79.646 83.9464 78.1723 83.9965 76.8524 83.9998L77.3149 86.9075L68.7254 88.2735L64.4165 68.0205L32.6109 67.0783L37.2365 84.7826L33.3664 85.7938L27.3906 62.9219L58.2435 63.8359C58.2839 63.5593 58.3302 63.2593 58.383 62.9356C58.5625 61.8342 59.1676 60.9721 59.8116 60.3293C60.4546 59.6876 61.2456 59.1541 62.0293 58.7034C62.8858 58.2108 63.8716 57.7435 64.835 57.3087C64.6481 56.9353 64.4754 56.5567 64.317 56.2003C64.221 55.9845 64.1312 55.7802 64.0463 55.5874C63.6211 54.621 63.3219 53.9409 63.0154 53.5231C62.2134 52.4298 62.0546 51.0624 62.041 50.1127C62.0271 49.147 62.1614 48.2234 62.3059 47.5968L63.1742 41.6785C62.7136 41.008 62.6281 40.207 62.6281 39.6034C62.6281 35.4184 65.3431 32.234 68.2877 30.8735C69.911 30.1235 72.2068 29.9607 74.1731 30.0073Z" fill="#EAF42C"/>
</g>
<defs>
<filter id="filter0_d" x="0" y="0" width="136" height="136" filterUnits="userSpaceOnUse" color-interpolation-filters="sRGB">
<feFlood flood-opacity="0" result="BackgroundImageFix"/>
<feColorMatrix in="SourceAlpha" type="matrix" values="0 0 0 0 0 0 0 0 0 0 0 0 0 0 0 0 0 0 127 0"/>
<feOffset dy="8"/>
<feGaussianBlur stdDeviation="12"/>
<feColorMatrix type="matrix" values="0 0 0 0 0.110156 0 0 0 0 0.136929 0 0 0 0 0.1875 0 0 0 0.2 0"/>
<feBlend mode="normal" in2="BackgroundImageFix" result="effect1_dropShadow"/>
<feBlend mode="normal" in="SourceGraphic" in2="effect1_dropShadow" result="shape"/>
</filter>
</defs>
</svg>
