<svg width="24" height="24" viewBox="0 0 24 24" fill="none" xmlns="http://www.w3.org/2000/svg">
<g clip-path="url(#clip0_2584_1138)">
<path fill-rule="evenodd" clip-rule="evenodd" d="M12 15C14.7614 15 17 12.7614 17 10L19 10C19 13.866 15.866 17 12 17C8.13401 17 5 13.866 5 10L7 10C7 12.7614 9.23858 15 12 15Z" fill="#8C97AC"/>
<path fill-rule="evenodd" clip-rule="evenodd" d="M18 11C17.4477 11 17 10.5523 17 10L17 8C17 5.94893 17.2511 4.01175 17.9806 2.55279C18.0761 2.36175 18.1808 2.17696 18.2954 2L12 2C11.4477 2 11 1.55229 11 1C11 0.447716 11.4477 9.2251e-07 12 8.74228e-07L22 0L22 2C21.425 2 20.9977 2.14088 20.6641 2.3633C20.3242 2.58989 20.0226 2.94084 19.7694 3.44721C19.2489 4.48825 19 6.05107 19 8L19 10C19 10.5523 18.5523 11 18 11Z" fill="#8C97AC"/>
<path fill-rule="evenodd" clip-rule="evenodd" d="M6 11C6.55228 11 7 10.5523 7 10L7 8C7 5.94893 6.74891 4.01175 6.01943 2.55279C5.92391 2.36175 5.81921 2.17696 5.70464 2L12 2C12.5523 2 13 1.55228 13 0.999999C13 0.447714 12.5523 -9.2251e-07 12 -8.74228e-07L2 0L2 2C2.57501 2 3.00229 2.14088 3.33592 2.3633C3.67581 2.58989 3.97739 2.94084 4.23057 3.44721C4.75109 4.48825 5 6.05107 5 8L5 10C5 10.5523 5.44772 11 6 11Z" fill="#8C97AC"/>
<path d="M3 1C3 1.55228 2.55228 2 2 2C1.44772 2 1 1.55228 1 1C1 0.447715 1.44772 0 2 0C2.55228 0 3 0.447715 3 1Z" fill="#8C97AC"/>
<path d="M23 1C23 1.55228 22.5523 2 22 2C21.4477 2 21 1.55228 21 1C21 0.447715 21.4477 0 22 0C22.5523 0 23 0.447715 23 1Z" fill="#8C97AC"/>
<path fill-rule="evenodd" clip-rule="evenodd" d="M21.9999 7H17.9999V5H21.9999C23.1045 5 23.9999 5.89543 23.9999 7V9.38197C23.9999 10.1395 23.5719 10.832 22.8944 11.1708L17.4472 13.8944L16.5527 12.1056L21.9999 9.38197V7Z" fill="#8C97AC"/>
<path fill-rule="evenodd" clip-rule="evenodd" d="M2.00005 9.37816L7.44727 12.1018L6.55284 13.8906L1.10562 11.167C0.428057 10.8282 5.23035e-05 10.1357 5.23697e-05 9.37816L5.2578e-05 6.9962C5.26745e-05 5.89163 0.895483 4.9962 2.00005 4.9962L6.00005 4.9962L6.00005 6.9962L2.00005 6.9962L2.00005 9.37816Z" fill="#8C97AC"/>
<path fill-rule="evenodd" clip-rule="evenodd" d="M6.98717 21.0039L10.1322 15.5L11.8687 16.4923L8.72366 21.9961H12.0005V23.9961H8.72366C7.18801 23.9961 6.22528 22.3372 6.98717 21.0039Z" fill="#8C97AC"/>
<path fill-rule="evenodd" clip-rule="evenodd" d="M17.0128 21.0039L13.8678 15.5L12.1313 16.4923L15.2763 21.9961H11.9995V23.9961H15.2763C16.812 23.9961 17.7747 22.3372 17.0128 21.0039Z" fill="#8C97AC"/>
</g>
<defs>
<clipPath id="clip0_2584_1138">
<rect width="24" height="24" fill="white"/>
</clipPath>
</defs>
</svg>
