<svg width="660" height="346" viewBox="0 0 660 346" fill="none" xmlns="http://www.w3.org/2000/svg">
<path d="M141 2.3094C143.475 0.88034 146.525 0.880338 149 2.3094L220.674 43.6906C223.15 45.1197 224.674 47.7607 224.674 50.6188V133.381C224.674 136.239 223.15 138.88 220.674 140.309L149 181.691C146.525 183.12 143.475 183.12 141 181.691L69.3257 140.309C66.8505 138.88 65.3257 136.239 65.3257 133.381V50.6188C65.3257 47.7607 66.8505 45.1197 69.3257 43.6906L141 2.3094Z" fill="url(#paint0_radial)" fill-opacity="0.8"/>
<g opacity="0.55" filter="url(#filter0_i)">
<path d="M200.201 91.9998C200.201 122.486 175.487 147.2 145.001 147.2C114.515 147.2 89.8008 122.486 89.8008 91.9998C89.8008 61.5137 114.515 36.7998 145.001 36.7998C175.487 36.7998 200.201 61.5137 200.201 91.9998Z" fill="#5E8CEA"/>
</g>
<g filter="url(#filter1_di)">
<path d="M97.8571 67.0056L103 54.1484L108.143 67.0056H121L112 76.0056L115.857 90.1484L103 82.4342L90.1429 90.1484L94 76.0056L85 67.0056H97.8571Z" fill="url(#paint1_radial)"/>
</g>
<path fill-rule="evenodd" clip-rule="evenodd" d="M103 51.4561L108.82 66.0058H123.414L113.118 76.3025L117.477 92.2866L103 83.6005L88.5234 92.2866L92.8827 76.3025L82.5859 66.0058H97.1803L103 51.4561ZM103 56.8412L98.5343 68.0058H87.4144L95.1176 75.709L91.7626 88.0107L103 81.2682L114.238 88.0107L110.883 75.709L118.586 68.0058H107.466L103 56.8412Z" fill="#74A6FF"/>
<g filter="url(#filter2_di)">
<path d="M118.857 106.84L124 93.9824L129.143 106.84H142L133 115.84L136.857 129.982L124 122.268L111.143 129.982L115 115.84L106 106.84H118.857Z" fill="url(#paint2_radial)"/>
</g>
<path fill-rule="evenodd" clip-rule="evenodd" d="M124 91.29L129.82 105.84H144.414L134.118 116.137L138.477 132.121L124 123.435L109.523 132.121L113.883 116.137L103.586 105.84H118.18L124 91.29ZM124 96.6752L119.534 107.84H108.414L116.118 115.543L112.763 127.845L124 121.102L135.238 127.845L131.883 115.543L139.586 107.84H128.466L124 96.6752Z" fill="#74A6FF"/>
<g filter="url(#filter3_di)">
<path d="M139.857 67.0056L145 54.1484L150.143 67.0056H163L154 76.0056L157.857 90.1484L145 82.4342L132.143 90.1484L136 76.0056L127 67.0056H139.857Z" fill="url(#paint3_radial)"/>
</g>
<path fill-rule="evenodd" clip-rule="evenodd" d="M145 51.4561L150.82 66.0058H165.414L155.118 76.3025L159.477 92.2866L145 83.6005L130.523 92.2866L134.883 76.3025L124.586 66.0058H139.18L145 51.4561ZM145 56.8412L140.534 68.0058H129.414L137.118 75.709L133.763 88.0107L145 81.2682L156.238 88.0107L152.883 75.709L160.586 68.0058H149.466L145 56.8412Z" fill="#74A6FF"/>
<g filter="url(#filter4_di)">
<path d="M160.857 106.84L166 93.9824L171.143 106.84H184L175 115.84L178.857 129.982L166 122.268L153.143 129.982L157 115.84L148 106.84H160.857Z" fill="url(#paint4_radial)"/>
</g>
<path fill-rule="evenodd" clip-rule="evenodd" d="M166 91.29L171.82 105.84H186.414L176.118 116.137L180.477 132.121L166 123.435L151.523 132.121L155.883 116.137L145.586 105.84H160.18L166 91.29ZM166 96.6752L161.534 107.84H150.414L158.118 115.543L154.763 127.845L166 121.102L177.238 127.845L173.883 115.543L181.586 107.84H170.466L166 96.6752Z" fill="#74A6FF"/>
<g filter="url(#filter5_di)">
<path d="M181.857 67.0056L187 54.1484L192.143 67.0056H205L196 76.0056L199.857 90.1484L187 82.4342L174.143 90.1484L178 76.0056L169 67.0056H181.857Z" fill="url(#paint5_radial)"/>
</g>
<path fill-rule="evenodd" clip-rule="evenodd" d="M187 51.4561L192.82 66.0058H207.414L197.118 76.3025L201.477 92.2866L187 83.6005L172.523 92.2866L176.883 76.3025L166.586 66.0058H181.18L187 51.4561ZM187 56.8412L182.534 68.0058H171.414L179.118 75.709L175.763 88.0107L187 81.2682L198.238 88.0107L194.883 75.709L202.586 68.0058H191.466L187 56.8412Z" fill="#74A6FF"/>
<path d="M512 2.3094C514.475 0.88034 517.525 0.880338 520 2.3094L591.674 43.6906C594.15 45.1197 595.674 47.7607 595.674 50.6188V133.381C595.674 136.239 594.15 138.88 591.674 140.309L520 181.691C517.525 183.12 514.475 183.12 512 181.691L440.326 140.309C437.85 138.88 436.326 136.239 436.326 133.381V50.6188C436.326 47.7607 437.85 45.1197 440.326 43.6906L512 2.3094Z" fill="url(#paint6_radial)" fill-opacity="0.8"/>
<g opacity="0.55" filter="url(#filter6_i)">
<path d="M571.201 91.9998C571.201 122.486 546.487 147.2 516.001 147.2C485.515 147.2 460.801 122.486 460.801 91.9998C460.801 61.5137 485.515 36.7998 516.001 36.7998C546.487 36.7998 571.201 61.5137 571.201 91.9998Z" fill="#5E8CEA"/>
</g>
<g filter="url(#filter7_di)">
<path d="M468.857 67.0056L474 54.1484L479.143 67.0056H492L483 76.0056L486.857 90.1484L474 82.4342L461.143 90.1484L465 76.0056L456 67.0056H468.857Z" fill="url(#paint7_radial)"/>
</g>
<path fill-rule="evenodd" clip-rule="evenodd" d="M474 51.4561L479.82 66.0058H494.414L484.118 76.3025L488.477 92.2866L474 83.6005L459.523 92.2866L463.883 76.3025L453.586 66.0058H468.18L474 51.4561ZM474 56.8412L469.534 68.0058H458.414L466.118 75.709L462.763 88.0107L474 81.2682L485.238 88.0107L481.883 75.709L489.586 68.0058H478.466L474 56.8412Z" fill="#74A6FF"/>
<g filter="url(#filter8_di)">
<path d="M489.857 106.84L495 93.9824L500.143 106.84H513L504 115.84L507.857 129.982L495 122.268L482.143 129.982L486 115.84L477 106.84H489.857Z" fill="url(#paint8_radial)"/>
</g>
<path fill-rule="evenodd" clip-rule="evenodd" d="M495 91.29L500.82 105.84H515.414L505.118 116.137L509.477 132.121L495 123.435L480.523 132.121L484.883 116.137L474.586 105.84H489.18L495 91.29ZM495 96.6752L490.534 107.84H479.414L487.118 115.543L483.763 127.845L495 121.102L506.238 127.845L502.883 115.543L510.586 107.84H499.466L495 96.6752Z" fill="#74A6FF"/>
<g filter="url(#filter9_di)">
<path d="M510.857 67.0056L516 54.1484L521.143 67.0056H534L525 76.0056L528.857 90.1484L516 82.4342L503.143 90.1484L507 76.0056L498 67.0056H510.857Z" fill="url(#paint9_radial)"/>
</g>
<path fill-rule="evenodd" clip-rule="evenodd" d="M516 51.4561L521.82 66.0058H536.414L526.118 76.3025L530.477 92.2866L516 83.6005L501.523 92.2866L505.883 76.3025L495.586 66.0058H510.18L516 51.4561ZM516 56.8412L511.534 68.0058H500.414L508.118 75.709L504.763 88.0107L516 81.2682L527.238 88.0107L523.883 75.709L531.586 68.0058H520.466L516 56.8412Z" fill="#74A6FF"/>
<path fill-rule="evenodd" clip-rule="evenodd" d="M537 91.29L542.82 105.84H557.414L547.118 116.137L551.477 132.121L537 123.435L522.523 132.121L526.883 116.137L516.586 105.84H531.18L537 91.29ZM537 96.6752L532.534 107.84H521.414L529.118 115.543L525.763 127.845L537 121.102L548.238 127.845L544.883 115.543L552.586 107.84H541.466L537 96.6752Z" fill="#74A6FF"/>
<g filter="url(#filter10_di)">
<path d="M552.857 67.0056L558 54.1484L563.143 67.0056H576L567 76.0056L570.857 90.1484L558 82.4342L545.143 90.1484L549 76.0056L540 67.0056H552.857Z" fill="url(#paint10_radial)"/>
</g>
<path fill-rule="evenodd" clip-rule="evenodd" d="M558 51.4561L563.82 66.0058H578.414L568.118 76.3025L572.477 92.2866L558 83.6005L543.523 92.2866L547.883 76.3025L537.586 66.0058H552.18L558 51.4561ZM558 56.8412L553.534 68.0058H542.414L550.118 75.709L546.763 88.0107L558 81.2682L569.238 88.0107L565.883 75.709L573.586 68.0058H562.466L558 56.8412Z" fill="#74A6FF"/>
<path d="M233 164.309C235.475 162.88 238.525 162.88 241 164.309L312.674 205.691C315.15 207.12 316.674 209.761 316.674 212.619V295.381C316.674 298.239 315.15 300.88 312.674 302.309L241 343.691C238.525 345.12 235.475 345.12 233 343.691L161.326 302.309C158.85 300.88 157.326 298.239 157.326 295.381V212.619C157.326 209.761 158.85 207.12 161.326 205.691L233 164.309Z" fill="url(#paint11_radial)" fill-opacity="0.8"/>
<g opacity="0.55" filter="url(#filter11_i)">
<path d="M292.201 254C292.201 284.486 267.487 309.2 237.001 309.2C206.515 309.2 181.801 284.486 181.801 254C181.801 223.514 206.515 198.8 237.001 198.8C267.487 198.8 292.201 223.514 292.201 254Z" fill="#5E8CEA"/>
</g>
<g filter="url(#filter12_di)">
<path d="M189.857 230.857L195 218L200.143 230.857H213L204 239.857L207.857 254L195 246.286L182.143 254L186 239.857L177 230.857H189.857Z" fill="url(#paint12_radial)"/>
</g>
<path fill-rule="evenodd" clip-rule="evenodd" d="M195 215.308L200.82 229.857H215.414L205.118 240.154L209.477 256.138L195 247.452L180.523 256.138L184.883 240.154L174.586 229.857H189.18L195 215.308ZM195 220.693L190.534 231.857H179.414L187.118 239.561L183.763 251.862L195 245.12L206.238 251.862L202.883 239.561L210.586 231.857H199.466L195 220.693Z" fill="#74A6FF"/>
<path fill-rule="evenodd" clip-rule="evenodd" d="M216 255.142L221.82 269.691H236.414L226.118 279.988L230.477 295.972L216 287.286L201.523 295.972L205.883 279.988L195.586 269.691H210.18L216 255.142ZM216 260.527L211.534 271.691H200.414L208.118 279.395L204.763 291.696L216 284.954L227.238 291.696L223.883 279.395L231.586 271.691H220.466L216 260.527Z" fill="#74A6FF"/>
<g filter="url(#filter13_di)">
<path d="M231.857 230.857L237 218L242.143 230.857H255L246 239.857L249.857 254L237 246.286L224.143 254L228 239.857L219 230.857H231.857Z" fill="url(#paint13_radial)"/>
</g>
<path fill-rule="evenodd" clip-rule="evenodd" d="M237 215.308L242.82 229.857H257.414L247.118 240.154L251.477 256.138L237 247.452L222.523 256.138L226.883 240.154L216.586 229.857H231.18L237 215.308ZM237 220.693L232.534 231.857H221.414L229.118 239.561L225.763 251.862L237 245.12L248.238 251.862L244.883 239.561L252.586 231.857H241.466L237 220.693Z" fill="#74A6FF"/>
<path fill-rule="evenodd" clip-rule="evenodd" d="M258 255.142L263.82 269.691H278.414L268.118 279.988L272.477 295.972L258 287.286L243.523 295.972L247.883 279.988L237.586 269.691H252.18L258 255.142ZM258 260.527L253.534 271.691H242.414L250.118 279.395L246.763 291.696L258 284.954L269.238 291.696L265.883 279.395L273.586 271.691H262.466L258 260.527Z" fill="#74A6FF"/>
<g filter="url(#filter14_di)">
<path d="M273.857 230.857L279 218L284.143 230.857H297L288 239.857L291.857 254L279 246.286L266.143 254L270 239.857L261 230.857H273.857Z" fill="url(#paint14_radial)"/>
</g>
<path fill-rule="evenodd" clip-rule="evenodd" d="M279 215.308L284.82 229.857H299.414L289.118 240.154L293.477 256.138L279 247.452L264.523 256.138L268.883 240.154L258.586 229.857H273.18L279 215.308ZM279 220.693L274.534 231.857H263.414L271.118 239.561L267.763 251.862L279 245.12L290.238 251.862L286.883 239.561L294.586 231.857H283.466L279 220.693Z" fill="#74A6FF"/>
<path d="M326 2.3094C328.475 0.88034 331.525 0.880338 334 2.3094L405.674 43.6906C408.15 45.1197 409.674 47.7607 409.674 50.6188V133.381C409.674 136.239 408.15 138.88 405.674 140.309L334 181.691C331.525 183.12 328.475 183.12 326 181.691L254.326 140.309C251.85 138.88 250.326 136.239 250.326 133.381V50.6188C250.326 47.7607 251.85 45.1197 254.326 43.6906L326 2.3094Z" fill="url(#paint15_radial)" fill-opacity="0.8"/>
<g opacity="0.55" filter="url(#filter15_i)">
<path d="M385.201 91.9998C385.201 122.486 360.487 147.2 330.001 147.2C299.515 147.2 274.801 122.486 274.801 91.9998C274.801 61.5137 299.515 36.7998 330.001 36.7998C360.487 36.7998 385.201 61.5137 385.201 91.9998Z" fill="#5E8CEA"/>
</g>
<g filter="url(#filter16_di)">
<path d="M274 73C274 66.3726 279.373 61 286 61H373C379.627 61 385 66.3726 385 73V105.426C385 112.054 379.627 117.426 373 117.426H303L288.5 130V117.426H286C279.373 117.426 274 112.054 274 105.426V73Z" fill="url(#paint16_radial)"/>
</g>
<path fill-rule="evenodd" clip-rule="evenodd" d="M273 73C273 65.8203 278.82 60 286 60H373C380.18 60 386 65.8203 386 73V105.426C386 112.606 380.18 118.426 373 118.426H303.373L287.5 132.191V118.426H286C278.82 118.426 273 112.606 273 105.426V73ZM286 62C279.925 62 275 66.9249 275 73V105.426C275 111.501 279.925 116.426 286 116.426H289.5V127.809L302.627 116.426H373C379.075 116.426 384 111.501 384 105.426V73C384 66.9249 379.075 62 373 62H286Z" fill="#74A6FF"/>
<path d="M419 164.309C421.475 162.88 424.525 162.88 427 164.309L498.674 205.691C501.15 207.12 502.674 209.761 502.674 212.619V295.381C502.674 298.239 501.15 300.88 498.674 302.309L427 343.691C424.525 345.12 421.475 345.12 419 343.691L347.326 302.309C344.85 300.88 343.326 298.239 343.326 295.381V212.619C343.326 209.761 344.85 207.12 347.326 205.691L419 164.309Z" fill="url(#paint17_radial)" fill-opacity="0.8"/>
<g opacity="0.55" filter="url(#filter17_i)">
<path d="M478.201 254C478.201 284.486 453.487 309.2 423.001 309.2C392.515 309.2 367.801 284.486 367.801 254C367.801 223.514 392.515 198.8 423.001 198.8C453.487 198.8 478.201 223.514 478.201 254Z" fill="#5E8CEA"/>
</g>
<g filter="url(#filter18_di)">
<path d="M368 235C368 228.373 373.373 223 380 223H467C473.627 223 479 228.373 479 235V267.426C479 274.054 473.627 279.426 467 279.426H397L382.5 292V279.426H380C373.373 279.426 368 274.054 368 267.426V235Z" fill="url(#paint18_radial)"/>
</g>
<path fill-rule="evenodd" clip-rule="evenodd" d="M367 235C367 227.82 372.82 222 380 222H467C474.18 222 480 227.82 480 235V267.426C480 274.606 474.18 280.426 467 280.426H397.373L381.5 294.191V280.426H380C372.82 280.426 367 274.606 367 267.426V235ZM380 224C373.925 224 369 228.925 369 235V267.426C369 273.501 373.925 278.426 380 278.426H383.5V289.809L396.627 278.426H467C473.075 278.426 478 273.501 478 267.426V235C478 228.925 473.075 224 467 224H380Z" fill="#74A6FF"/>
<defs>
<filter id="filter0_i" x="89.8008" y="28.7998" width="118.4" height="118.4" filterUnits="userSpaceOnUse" color-interpolation-filters="sRGB">
<feFlood flood-opacity="0" result="BackgroundImageFix"/>
<feBlend mode="normal" in="SourceGraphic" in2="BackgroundImageFix" result="shape"/>
<feColorMatrix in="SourceAlpha" type="matrix" values="0 0 0 0 0 0 0 0 0 0 0 0 0 0 0 0 0 0 127 0" result="hardAlpha"/>
<feOffset dx="8" dy="-8"/>
<feGaussianBlur stdDeviation="8"/>
<feComposite in2="hardAlpha" operator="arithmetic" k2="-1" k3="1"/>
<feColorMatrix type="matrix" values="0 0 0 0 0.154687 0 0 0 0 0.254457 0 0 0 0 0.458333 0 0 0 1 0"/>
<feBlend mode="normal" in2="shape" result="effect1_innerShadow"/>
</filter>
<filter id="filter1_di" x="69" y="42.1484" width="68" height="68" filterUnits="userSpaceOnUse" color-interpolation-filters="sRGB">
<feFlood flood-opacity="0" result="BackgroundImageFix"/>
<feColorMatrix in="SourceAlpha" type="matrix" values="0 0 0 0 0 0 0 0 0 0 0 0 0 0 0 0 0 0 127 0"/>
<feOffset dy="4"/>
<feGaussianBlur stdDeviation="8"/>
<feColorMatrix type="matrix" values="0 0 0 0 0.117647 0 0 0 0 0.145098 0 0 0 0 0.196078 0 0 0 0.4 0"/>
<feBlend mode="normal" in2="BackgroundImageFix" result="effect1_dropShadow"/>
<feBlend mode="normal" in="SourceGraphic" in2="effect1_dropShadow" result="shape"/>
<feColorMatrix in="SourceAlpha" type="matrix" values="0 0 0 0 0 0 0 0 0 0 0 0 0 0 0 0 0 0 127 0" result="hardAlpha"/>
<feOffset/>
<feGaussianBlur stdDeviation="4"/>
<feComposite in2="hardAlpha" operator="arithmetic" k2="-1" k3="1"/>
<feColorMatrix type="matrix" values="0 0 0 0 0.135903 0 0 0 0 0.241804 0 0 0 0 0.429167 0 0 0 0.8 0"/>
<feBlend mode="normal" in2="shape" result="effect2_innerShadow"/>
</filter>
<filter id="filter2_di" x="90" y="81.9824" width="68" height="68" filterUnits="userSpaceOnUse" color-interpolation-filters="sRGB">
<feFlood flood-opacity="0" result="BackgroundImageFix"/>
<feColorMatrix in="SourceAlpha" type="matrix" values="0 0 0 0 0 0 0 0 0 0 0 0 0 0 0 0 0 0 127 0"/>
<feOffset dy="4"/>
<feGaussianBlur stdDeviation="8"/>
<feColorMatrix type="matrix" values="0 0 0 0 0.117647 0 0 0 0 0.145098 0 0 0 0 0.196078 0 0 0 0.4 0"/>
<feBlend mode="normal" in2="BackgroundImageFix" result="effect1_dropShadow"/>
<feBlend mode="normal" in="SourceGraphic" in2="effect1_dropShadow" result="shape"/>
<feColorMatrix in="SourceAlpha" type="matrix" values="0 0 0 0 0 0 0 0 0 0 0 0 0 0 0 0 0 0 127 0" result="hardAlpha"/>
<feOffset/>
<feGaussianBlur stdDeviation="4"/>
<feComposite in2="hardAlpha" operator="arithmetic" k2="-1" k3="1"/>
<feColorMatrix type="matrix" values="0 0 0 0 0.135903 0 0 0 0 0.241804 0 0 0 0 0.429167 0 0 0 0.8 0"/>
<feBlend mode="normal" in2="shape" result="effect2_innerShadow"/>
</filter>
<filter id="filter3_di" x="111" y="42.1484" width="68" height="68" filterUnits="userSpaceOnUse" color-interpolation-filters="sRGB">
<feFlood flood-opacity="0" result="BackgroundImageFix"/>
<feColorMatrix in="SourceAlpha" type="matrix" values="0 0 0 0 0 0 0 0 0 0 0 0 0 0 0 0 0 0 127 0"/>
<feOffset dy="4"/>
<feGaussianBlur stdDeviation="8"/>
<feColorMatrix type="matrix" values="0 0 0 0 0.117647 0 0 0 0 0.145098 0 0 0 0 0.196078 0 0 0 0.4 0"/>
<feBlend mode="normal" in2="BackgroundImageFix" result="effect1_dropShadow"/>
<feBlend mode="normal" in="SourceGraphic" in2="effect1_dropShadow" result="shape"/>
<feColorMatrix in="SourceAlpha" type="matrix" values="0 0 0 0 0 0 0 0 0 0 0 0 0 0 0 0 0 0 127 0" result="hardAlpha"/>
<feOffset/>
<feGaussianBlur stdDeviation="4"/>
<feComposite in2="hardAlpha" operator="arithmetic" k2="-1" k3="1"/>
<feColorMatrix type="matrix" values="0 0 0 0 0.135903 0 0 0 0 0.241804 0 0 0 0 0.429167 0 0 0 0.8 0"/>
<feBlend mode="normal" in2="shape" result="effect2_innerShadow"/>
</filter>
<filter id="filter4_di" x="132" y="81.9824" width="68" height="68" filterUnits="userSpaceOnUse" color-interpolation-filters="sRGB">
<feFlood flood-opacity="0" result="BackgroundImageFix"/>
<feColorMatrix in="SourceAlpha" type="matrix" values="0 0 0 0 0 0 0 0 0 0 0 0 0 0 0 0 0 0 127 0"/>
<feOffset dy="4"/>
<feGaussianBlur stdDeviation="8"/>
<feColorMatrix type="matrix" values="0 0 0 0 0.117647 0 0 0 0 0.145098 0 0 0 0 0.196078 0 0 0 0.4 0"/>
<feBlend mode="normal" in2="BackgroundImageFix" result="effect1_dropShadow"/>
<feBlend mode="normal" in="SourceGraphic" in2="effect1_dropShadow" result="shape"/>
<feColorMatrix in="SourceAlpha" type="matrix" values="0 0 0 0 0 0 0 0 0 0 0 0 0 0 0 0 0 0 127 0" result="hardAlpha"/>
<feOffset/>
<feGaussianBlur stdDeviation="4"/>
<feComposite in2="hardAlpha" operator="arithmetic" k2="-1" k3="1"/>
<feColorMatrix type="matrix" values="0 0 0 0 0.135903 0 0 0 0 0.241804 0 0 0 0 0.429167 0 0 0 0.8 0"/>
<feBlend mode="normal" in2="shape" result="effect2_innerShadow"/>
</filter>
<filter id="filter5_di" x="153" y="42.1484" width="68" height="68" filterUnits="userSpaceOnUse" color-interpolation-filters="sRGB">
<feFlood flood-opacity="0" result="BackgroundImageFix"/>
<feColorMatrix in="SourceAlpha" type="matrix" values="0 0 0 0 0 0 0 0 0 0 0 0 0 0 0 0 0 0 127 0"/>
<feOffset dy="4"/>
<feGaussianBlur stdDeviation="8"/>
<feColorMatrix type="matrix" values="0 0 0 0 0.117647 0 0 0 0 0.145098 0 0 0 0 0.196078 0 0 0 0.4 0"/>
<feBlend mode="normal" in2="BackgroundImageFix" result="effect1_dropShadow"/>
<feBlend mode="normal" in="SourceGraphic" in2="effect1_dropShadow" result="shape"/>
<feColorMatrix in="SourceAlpha" type="matrix" values="0 0 0 0 0 0 0 0 0 0 0 0 0 0 0 0 0 0 127 0" result="hardAlpha"/>
<feOffset/>
<feGaussianBlur stdDeviation="4"/>
<feComposite in2="hardAlpha" operator="arithmetic" k2="-1" k3="1"/>
<feColorMatrix type="matrix" values="0 0 0 0 0.135903 0 0 0 0 0.241804 0 0 0 0 0.429167 0 0 0 0.8 0"/>
<feBlend mode="normal" in2="shape" result="effect2_innerShadow"/>
</filter>
<filter id="filter6_i" x="460.801" y="28.7998" width="118.4" height="118.4" filterUnits="userSpaceOnUse" color-interpolation-filters="sRGB">
<feFlood flood-opacity="0" result="BackgroundImageFix"/>
<feBlend mode="normal" in="SourceGraphic" in2="BackgroundImageFix" result="shape"/>
<feColorMatrix in="SourceAlpha" type="matrix" values="0 0 0 0 0 0 0 0 0 0 0 0 0 0 0 0 0 0 127 0" result="hardAlpha"/>
<feOffset dx="8" dy="-8"/>
<feGaussianBlur stdDeviation="8"/>
<feComposite in2="hardAlpha" operator="arithmetic" k2="-1" k3="1"/>
<feColorMatrix type="matrix" values="0 0 0 0 0.154687 0 0 0 0 0.254457 0 0 0 0 0.458333 0 0 0 1 0"/>
<feBlend mode="normal" in2="shape" result="effect1_innerShadow"/>
</filter>
<filter id="filter7_di" x="440" y="42.1484" width="68" height="68" filterUnits="userSpaceOnUse" color-interpolation-filters="sRGB">
<feFlood flood-opacity="0" result="BackgroundImageFix"/>
<feColorMatrix in="SourceAlpha" type="matrix" values="0 0 0 0 0 0 0 0 0 0 0 0 0 0 0 0 0 0 127 0"/>
<feOffset dy="4"/>
<feGaussianBlur stdDeviation="8"/>
<feColorMatrix type="matrix" values="0 0 0 0 0.117647 0 0 0 0 0.145098 0 0 0 0 0.196078 0 0 0 0.4 0"/>
<feBlend mode="normal" in2="BackgroundImageFix" result="effect1_dropShadow"/>
<feBlend mode="normal" in="SourceGraphic" in2="effect1_dropShadow" result="shape"/>
<feColorMatrix in="SourceAlpha" type="matrix" values="0 0 0 0 0 0 0 0 0 0 0 0 0 0 0 0 0 0 127 0" result="hardAlpha"/>
<feOffset/>
<feGaussianBlur stdDeviation="4"/>
<feComposite in2="hardAlpha" operator="arithmetic" k2="-1" k3="1"/>
<feColorMatrix type="matrix" values="0 0 0 0 0.135903 0 0 0 0 0.241804 0 0 0 0 0.429167 0 0 0 0.8 0"/>
<feBlend mode="normal" in2="shape" result="effect2_innerShadow"/>
</filter>
<filter id="filter8_di" x="461" y="81.9824" width="68" height="68" filterUnits="userSpaceOnUse" color-interpolation-filters="sRGB">
<feFlood flood-opacity="0" result="BackgroundImageFix"/>
<feColorMatrix in="SourceAlpha" type="matrix" values="0 0 0 0 0 0 0 0 0 0 0 0 0 0 0 0 0 0 127 0"/>
<feOffset dy="4"/>
<feGaussianBlur stdDeviation="8"/>
<feColorMatrix type="matrix" values="0 0 0 0 0.117647 0 0 0 0 0.145098 0 0 0 0 0.196078 0 0 0 0.4 0"/>
<feBlend mode="normal" in2="BackgroundImageFix" result="effect1_dropShadow"/>
<feBlend mode="normal" in="SourceGraphic" in2="effect1_dropShadow" result="shape"/>
<feColorMatrix in="SourceAlpha" type="matrix" values="0 0 0 0 0 0 0 0 0 0 0 0 0 0 0 0 0 0 127 0" result="hardAlpha"/>
<feOffset/>
<feGaussianBlur stdDeviation="4"/>
<feComposite in2="hardAlpha" operator="arithmetic" k2="-1" k3="1"/>
<feColorMatrix type="matrix" values="0 0 0 0 0.135903 0 0 0 0 0.241804 0 0 0 0 0.429167 0 0 0 0.8 0"/>
<feBlend mode="normal" in2="shape" result="effect2_innerShadow"/>
</filter>
<filter id="filter9_di" x="482" y="42.1484" width="68" height="68" filterUnits="userSpaceOnUse" color-interpolation-filters="sRGB">
<feFlood flood-opacity="0" result="BackgroundImageFix"/>
<feColorMatrix in="SourceAlpha" type="matrix" values="0 0 0 0 0 0 0 0 0 0 0 0 0 0 0 0 0 0 127 0"/>
<feOffset dy="4"/>
<feGaussianBlur stdDeviation="8"/>
<feColorMatrix type="matrix" values="0 0 0 0 0.117647 0 0 0 0 0.145098 0 0 0 0 0.196078 0 0 0 0.4 0"/>
<feBlend mode="normal" in2="BackgroundImageFix" result="effect1_dropShadow"/>
<feBlend mode="normal" in="SourceGraphic" in2="effect1_dropShadow" result="shape"/>
<feColorMatrix in="SourceAlpha" type="matrix" values="0 0 0 0 0 0 0 0 0 0 0 0 0 0 0 0 0 0 127 0" result="hardAlpha"/>
<feOffset/>
<feGaussianBlur stdDeviation="4"/>
<feComposite in2="hardAlpha" operator="arithmetic" k2="-1" k3="1"/>
<feColorMatrix type="matrix" values="0 0 0 0 0.135903 0 0 0 0 0.241804 0 0 0 0 0.429167 0 0 0 0.8 0"/>
<feBlend mode="normal" in2="shape" result="effect2_innerShadow"/>
</filter>
<filter id="filter10_di" x="524" y="42.1484" width="68" height="68" filterUnits="userSpaceOnUse" color-interpolation-filters="sRGB">
<feFlood flood-opacity="0" result="BackgroundImageFix"/>
<feColorMatrix in="SourceAlpha" type="matrix" values="0 0 0 0 0 0 0 0 0 0 0 0 0 0 0 0 0 0 127 0"/>
<feOffset dy="4"/>
<feGaussianBlur stdDeviation="8"/>
<feColorMatrix type="matrix" values="0 0 0 0 0.117647 0 0 0 0 0.145098 0 0 0 0 0.196078 0 0 0 0.4 0"/>
<feBlend mode="normal" in2="BackgroundImageFix" result="effect1_dropShadow"/>
<feBlend mode="normal" in="SourceGraphic" in2="effect1_dropShadow" result="shape"/>
<feColorMatrix in="SourceAlpha" type="matrix" values="0 0 0 0 0 0 0 0 0 0 0 0 0 0 0 0 0 0 127 0" result="hardAlpha"/>
<feOffset/>
<feGaussianBlur stdDeviation="4"/>
<feComposite in2="hardAlpha" operator="arithmetic" k2="-1" k3="1"/>
<feColorMatrix type="matrix" values="0 0 0 0 0.135903 0 0 0 0 0.241804 0 0 0 0 0.429167 0 0 0 0.8 0"/>
<feBlend mode="normal" in2="shape" result="effect2_innerShadow"/>
</filter>
<filter id="filter11_i" x="181.801" y="190.8" width="118.4" height="118.4" filterUnits="userSpaceOnUse" color-interpolation-filters="sRGB">
<feFlood flood-opacity="0" result="BackgroundImageFix"/>
<feBlend mode="normal" in="SourceGraphic" in2="BackgroundImageFix" result="shape"/>
<feColorMatrix in="SourceAlpha" type="matrix" values="0 0 0 0 0 0 0 0 0 0 0 0 0 0 0 0 0 0 127 0" result="hardAlpha"/>
<feOffset dx="8" dy="-8"/>
<feGaussianBlur stdDeviation="8"/>
<feComposite in2="hardAlpha" operator="arithmetic" k2="-1" k3="1"/>
<feColorMatrix type="matrix" values="0 0 0 0 0.154687 0 0 0 0 0.254457 0 0 0 0 0.458333 0 0 0 1 0"/>
<feBlend mode="normal" in2="shape" result="effect1_innerShadow"/>
</filter>
<filter id="filter12_di" x="161" y="206" width="68" height="68" filterUnits="userSpaceOnUse" color-interpolation-filters="sRGB">
<feFlood flood-opacity="0" result="BackgroundImageFix"/>
<feColorMatrix in="SourceAlpha" type="matrix" values="0 0 0 0 0 0 0 0 0 0 0 0 0 0 0 0 0 0 127 0"/>
<feOffset dy="4"/>
<feGaussianBlur stdDeviation="8"/>
<feColorMatrix type="matrix" values="0 0 0 0 0.117647 0 0 0 0 0.145098 0 0 0 0 0.196078 0 0 0 0.4 0"/>
<feBlend mode="normal" in2="BackgroundImageFix" result="effect1_dropShadow"/>
<feBlend mode="normal" in="SourceGraphic" in2="effect1_dropShadow" result="shape"/>
<feColorMatrix in="SourceAlpha" type="matrix" values="0 0 0 0 0 0 0 0 0 0 0 0 0 0 0 0 0 0 127 0" result="hardAlpha"/>
<feOffset/>
<feGaussianBlur stdDeviation="4"/>
<feComposite in2="hardAlpha" operator="arithmetic" k2="-1" k3="1"/>
<feColorMatrix type="matrix" values="0 0 0 0 0.135903 0 0 0 0 0.241804 0 0 0 0 0.429167 0 0 0 0.8 0"/>
<feBlend mode="normal" in2="shape" result="effect2_innerShadow"/>
</filter>
<filter id="filter13_di" x="203" y="206" width="68" height="68" filterUnits="userSpaceOnUse" color-interpolation-filters="sRGB">
<feFlood flood-opacity="0" result="BackgroundImageFix"/>
<feColorMatrix in="SourceAlpha" type="matrix" values="0 0 0 0 0 0 0 0 0 0 0 0 0 0 0 0 0 0 127 0"/>
<feOffset dy="4"/>
<feGaussianBlur stdDeviation="8"/>
<feColorMatrix type="matrix" values="0 0 0 0 0.117647 0 0 0 0 0.145098 0 0 0 0 0.196078 0 0 0 0.4 0"/>
<feBlend mode="normal" in2="BackgroundImageFix" result="effect1_dropShadow"/>
<feBlend mode="normal" in="SourceGraphic" in2="effect1_dropShadow" result="shape"/>
<feColorMatrix in="SourceAlpha" type="matrix" values="0 0 0 0 0 0 0 0 0 0 0 0 0 0 0 0 0 0 127 0" result="hardAlpha"/>
<feOffset/>
<feGaussianBlur stdDeviation="4"/>
<feComposite in2="hardAlpha" operator="arithmetic" k2="-1" k3="1"/>
<feColorMatrix type="matrix" values="0 0 0 0 0.135903 0 0 0 0 0.241804 0 0 0 0 0.429167 0 0 0 0.8 0"/>
<feBlend mode="normal" in2="shape" result="effect2_innerShadow"/>
</filter>
<filter id="filter14_di" x="245" y="206" width="68" height="68" filterUnits="userSpaceOnUse" color-interpolation-filters="sRGB">
<feFlood flood-opacity="0" result="BackgroundImageFix"/>
<feColorMatrix in="SourceAlpha" type="matrix" values="0 0 0 0 0 0 0 0 0 0 0 0 0 0 0 0 0 0 127 0"/>
<feOffset dy="4"/>
<feGaussianBlur stdDeviation="8"/>
<feColorMatrix type="matrix" values="0 0 0 0 0.117647 0 0 0 0 0.145098 0 0 0 0 0.196078 0 0 0 0.4 0"/>
<feBlend mode="normal" in2="BackgroundImageFix" result="effect1_dropShadow"/>
<feBlend mode="normal" in="SourceGraphic" in2="effect1_dropShadow" result="shape"/>
<feColorMatrix in="SourceAlpha" type="matrix" values="0 0 0 0 0 0 0 0 0 0 0 0 0 0 0 0 0 0 127 0" result="hardAlpha"/>
<feOffset/>
<feGaussianBlur stdDeviation="4"/>
<feComposite in2="hardAlpha" operator="arithmetic" k2="-1" k3="1"/>
<feColorMatrix type="matrix" values="0 0 0 0 0.135903 0 0 0 0 0.241804 0 0 0 0 0.429167 0 0 0 0.8 0"/>
<feBlend mode="normal" in2="shape" result="effect2_innerShadow"/>
</filter>
<filter id="filter15_i" x="274.801" y="28.7998" width="118.4" height="118.4" filterUnits="userSpaceOnUse" color-interpolation-filters="sRGB">
<feFlood flood-opacity="0" result="BackgroundImageFix"/>
<feBlend mode="normal" in="SourceGraphic" in2="BackgroundImageFix" result="shape"/>
<feColorMatrix in="SourceAlpha" type="matrix" values="0 0 0 0 0 0 0 0 0 0 0 0 0 0 0 0 0 0 127 0" result="hardAlpha"/>
<feOffset dx="8" dy="-8"/>
<feGaussianBlur stdDeviation="8"/>
<feComposite in2="hardAlpha" operator="arithmetic" k2="-1" k3="1"/>
<feColorMatrix type="matrix" values="0 0 0 0 0.154687 0 0 0 0 0.254457 0 0 0 0 0.458333 0 0 0 1 0"/>
<feBlend mode="normal" in2="shape" result="effect1_innerShadow"/>
</filter>
<filter id="filter16_di" x="258" y="49" width="143" height="101" filterUnits="userSpaceOnUse" color-interpolation-filters="sRGB">
<feFlood flood-opacity="0" result="BackgroundImageFix"/>
<feColorMatrix in="SourceAlpha" type="matrix" values="0 0 0 0 0 0 0 0 0 0 0 0 0 0 0 0 0 0 127 0"/>
<feOffset dy="4"/>
<feGaussianBlur stdDeviation="8"/>
<feColorMatrix type="matrix" values="0 0 0 0 0.117647 0 0 0 0 0.145098 0 0 0 0 0.196078 0 0 0 0.4 0"/>
<feBlend mode="normal" in2="BackgroundImageFix" result="effect1_dropShadow"/>
<feBlend mode="normal" in="SourceGraphic" in2="effect1_dropShadow" result="shape"/>
<feColorMatrix in="SourceAlpha" type="matrix" values="0 0 0 0 0 0 0 0 0 0 0 0 0 0 0 0 0 0 127 0" result="hardAlpha"/>
<feOffset/>
<feGaussianBlur stdDeviation="4"/>
<feComposite in2="hardAlpha" operator="arithmetic" k2="-1" k3="1"/>
<feColorMatrix type="matrix" values="0 0 0 0 0.135903 0 0 0 0 0.241804 0 0 0 0 0.429167 0 0 0 0.8 0"/>
<feBlend mode="normal" in2="shape" result="effect2_innerShadow"/>
</filter>
<filter id="filter17_i" x="367.801" y="190.8" width="118.4" height="118.4" filterUnits="userSpaceOnUse" color-interpolation-filters="sRGB">
<feFlood flood-opacity="0" result="BackgroundImageFix"/>
<feBlend mode="normal" in="SourceGraphic" in2="BackgroundImageFix" result="shape"/>
<feColorMatrix in="SourceAlpha" type="matrix" values="0 0 0 0 0 0 0 0 0 0 0 0 0 0 0 0 0 0 127 0" result="hardAlpha"/>
<feOffset dx="8" dy="-8"/>
<feGaussianBlur stdDeviation="8"/>
<feComposite in2="hardAlpha" operator="arithmetic" k2="-1" k3="1"/>
<feColorMatrix type="matrix" values="0 0 0 0 0.154687 0 0 0 0 0.254457 0 0 0 0 0.458333 0 0 0 1 0"/>
<feBlend mode="normal" in2="shape" result="effect1_innerShadow"/>
</filter>
<filter id="filter18_di" x="352" y="211" width="143" height="101" filterUnits="userSpaceOnUse" color-interpolation-filters="sRGB">
<feFlood flood-opacity="0" result="BackgroundImageFix"/>
<feColorMatrix in="SourceAlpha" type="matrix" values="0 0 0 0 0 0 0 0 0 0 0 0 0 0 0 0 0 0 127 0"/>
<feOffset dy="4"/>
<feGaussianBlur stdDeviation="8"/>
<feColorMatrix type="matrix" values="0 0 0 0 0.117647 0 0 0 0 0.145098 0 0 0 0 0.196078 0 0 0 0.4 0"/>
<feBlend mode="normal" in2="BackgroundImageFix" result="effect1_dropShadow"/>
<feBlend mode="normal" in="SourceGraphic" in2="effect1_dropShadow" result="shape"/>
<feColorMatrix in="SourceAlpha" type="matrix" values="0 0 0 0 0 0 0 0 0 0 0 0 0 0 0 0 0 0 127 0" result="hardAlpha"/>
<feOffset/>
<feGaussianBlur stdDeviation="4"/>
<feComposite in2="hardAlpha" operator="arithmetic" k2="-1" k3="1"/>
<feColorMatrix type="matrix" values="0 0 0 0 0.135903 0 0 0 0 0.241804 0 0 0 0 0.429167 0 0 0 0.8 0"/>
<feBlend mode="normal" in2="shape" result="effect2_innerShadow"/>
</filter>
<radialGradient id="paint0_radial" cx="0" cy="0" r="1" gradientUnits="userSpaceOnUse" gradientTransform="translate(145 92) rotate(90) scale(92)">
<stop offset="0.360126" stop-color="#283142"/>
<stop offset="1" stop-color="#3A4C71"/>
</radialGradient>
<radialGradient id="paint1_radial" cx="0" cy="0" r="1" gradientUnits="userSpaceOnUse" gradientTransform="translate(101.258 69.6869) rotate(121.506) scale(23.9995 19.0204)">
<stop stop-color="#CBDCFF"/>
<stop offset="1" stop-color="#376EDD"/>
</radialGradient>
<radialGradient id="paint2_radial" cx="0" cy="0" r="1" gradientUnits="userSpaceOnUse" gradientTransform="translate(122.258 109.521) rotate(121.506) scale(23.9995 19.0204)">
<stop stop-color="#CBDCFF"/>
<stop offset="1" stop-color="#376EDD"/>
</radialGradient>
<radialGradient id="paint3_radial" cx="0" cy="0" r="1" gradientUnits="userSpaceOnUse" gradientTransform="translate(143.258 69.6869) rotate(121.506) scale(23.9995 19.0204)">
<stop stop-color="#CBDCFF"/>
<stop offset="1" stop-color="#376EDD"/>
</radialGradient>
<radialGradient id="paint4_radial" cx="0" cy="0" r="1" gradientUnits="userSpaceOnUse" gradientTransform="translate(164.258 109.521) rotate(121.506) scale(23.9995 19.0204)">
<stop stop-color="#CBDCFF"/>
<stop offset="1" stop-color="#376EDD"/>
</radialGradient>
<radialGradient id="paint5_radial" cx="0" cy="0" r="1" gradientUnits="userSpaceOnUse" gradientTransform="translate(185.258 69.6869) rotate(121.506) scale(23.9995 19.0204)">
<stop stop-color="#CBDCFF"/>
<stop offset="1" stop-color="#376EDD"/>
</radialGradient>
<radialGradient id="paint6_radial" cx="0" cy="0" r="1" gradientUnits="userSpaceOnUse" gradientTransform="translate(516 92) rotate(90) scale(92)">
<stop offset="0.360126" stop-color="#283142"/>
<stop offset="1" stop-color="#3A4C71"/>
</radialGradient>
<radialGradient id="paint7_radial" cx="0" cy="0" r="1" gradientUnits="userSpaceOnUse" gradientTransform="translate(472.258 69.6869) rotate(121.506) scale(23.9995 19.0204)">
<stop stop-color="#CBDCFF"/>
<stop offset="1" stop-color="#376EDD"/>
</radialGradient>
<radialGradient id="paint8_radial" cx="0" cy="0" r="1" gradientUnits="userSpaceOnUse" gradientTransform="translate(493.258 109.521) rotate(121.506) scale(23.9995 19.0204)">
<stop stop-color="#CBDCFF"/>
<stop offset="1" stop-color="#376EDD"/>
</radialGradient>
<radialGradient id="paint9_radial" cx="0" cy="0" r="1" gradientUnits="userSpaceOnUse" gradientTransform="translate(514.258 69.6869) rotate(121.506) scale(23.9995 19.0204)">
<stop stop-color="#CBDCFF"/>
<stop offset="1" stop-color="#376EDD"/>
</radialGradient>
<radialGradient id="paint10_radial" cx="0" cy="0" r="1" gradientUnits="userSpaceOnUse" gradientTransform="translate(556.258 69.6869) rotate(121.506) scale(23.9995 19.0204)">
<stop stop-color="#CBDCFF"/>
<stop offset="1" stop-color="#376EDD"/>
</radialGradient>
<radialGradient id="paint11_radial" cx="0" cy="0" r="1" gradientUnits="userSpaceOnUse" gradientTransform="translate(237 254) rotate(90) scale(92)">
<stop offset="0.360126" stop-color="#283142"/>
<stop offset="1" stop-color="#3A4C71"/>
</radialGradient>
<radialGradient id="paint12_radial" cx="0" cy="0" r="1" gradientUnits="userSpaceOnUse" gradientTransform="translate(193.258 233.538) rotate(121.506) scale(23.9995 19.0204)">
<stop stop-color="#CBDCFF"/>
<stop offset="1" stop-color="#376EDD"/>
</radialGradient>
<radialGradient id="paint13_radial" cx="0" cy="0" r="1" gradientUnits="userSpaceOnUse" gradientTransform="translate(235.258 233.538) rotate(121.506) scale(23.9995 19.0204)">
<stop stop-color="#CBDCFF"/>
<stop offset="1" stop-color="#376EDD"/>
</radialGradient>
<radialGradient id="paint14_radial" cx="0" cy="0" r="1" gradientUnits="userSpaceOnUse" gradientTransform="translate(277.258 233.538) rotate(121.506) scale(23.9995 19.0204)">
<stop stop-color="#CBDCFF"/>
<stop offset="1" stop-color="#376EDD"/>
</radialGradient>
<radialGradient id="paint15_radial" cx="0" cy="0" r="1" gradientUnits="userSpaceOnUse" gradientTransform="translate(330 92) rotate(90) scale(92)">
<stop offset="0.360126" stop-color="#283142"/>
<stop offset="1" stop-color="#3A4C71"/>
</radialGradient>
<radialGradient id="paint16_radial" cx="0" cy="0" r="1" gradientUnits="userSpaceOnUse" gradientTransform="translate(324.129 87.688) rotate(128.675) scale(61.8829 53.7017)">
<stop stop-color="#CBDCFF"/>
<stop offset="1" stop-color="#376EDD"/>
</radialGradient>
<radialGradient id="paint17_radial" cx="0" cy="0" r="1" gradientUnits="userSpaceOnUse" gradientTransform="translate(423 254) rotate(90) scale(92)">
<stop offset="0.360126" stop-color="#283142"/>
<stop offset="1" stop-color="#3A4C71"/>
</radialGradient>
<radialGradient id="paint18_radial" cx="0" cy="0" r="1" gradientUnits="userSpaceOnUse" gradientTransform="translate(418.129 249.688) rotate(128.675) scale(61.8829 53.7017)">
<stop stop-color="#CBDCFF"/>
<stop offset="1" stop-color="#376EDD"/>
</radialGradient>
</defs>
</svg>
