<svg width="660" height="346" viewBox="0 0 660 346" fill="none" xmlns="http://www.w3.org/2000/svg">
<path d="M140 2.3094C142.475 0.88034 145.525 0.880338 148 2.3094L219.674 43.6906C222.15 45.1197 223.674 47.7607 223.674 50.6188V133.381C223.674 136.239 222.15 138.88 219.674 140.309L148 181.691C145.525 183.12 142.475 183.12 140 181.691L68.3257 140.309C65.8505 138.88 64.3257 136.239 64.3257 133.381V50.6188C64.3257 47.7607 65.8505 45.1197 68.3257 43.6906L140 2.3094Z" fill="url(#paint0_radial)" fill-opacity="0.8"/>
<g opacity="0.55" filter="url(#filter0_i)">
<path d="M199.201 91.9998C199.201 122.486 174.487 147.2 144.001 147.2C113.515 147.2 88.8008 122.486 88.8008 91.9998C88.8008 61.5137 113.515 36.7998 144.001 36.7998C174.487 36.7998 199.201 61.5137 199.201 91.9998Z" fill="#5E8CEA"/>
</g>
<g filter="url(#filter1_di)">
<path fill-rule="evenodd" clip-rule="evenodd" d="M100.529 46H186.866L178.881 132.853L143.61 141.45L108.426 132.853L100.529 46ZM114.129 63.2317L115.357 73.0657H142.469L116.585 84.6403L117.638 95.4317H157.472L156.507 109.095L143.522 113.098L129.659 110.487L128.869 101.872H118.077L120.007 118.32L143.522 124.238L167.299 118.32L170.282 84.6403H147.558L171.072 74.3711L172.037 63.2317H114.129Z" fill="url(#paint1_radial)"/>
</g>
<path fill-rule="evenodd" clip-rule="evenodd" d="M99.4336 45H187.961L179.811 133.655L143.609 142.479L107.494 133.655L99.4336 45ZM101.624 47L109.356 132.051L143.609 140.421L177.95 132.05L185.769 47H101.624ZM112.996 62.2314H173.127L172.017 75.0493L152.346 83.64H171.375L168.232 119.118L143.52 125.268L119.094 119.121L116.952 100.871H129.781L130.585 109.644L143.463 112.069L155.558 108.341L156.399 96.4314H116.731L115.52 84.0209L137.783 74.0654H114.474L112.996 62.2314ZM115.261 64.2314L116.24 72.0654H142.468L142.877 73.9783L117.65 85.2591L118.545 94.4314H158.545L157.456 109.848L143.579 114.126L128.731 111.33L127.956 102.871H119.201L120.92 117.518L143.523 123.206L166.366 117.521L169.19 85.64H147.557L147.157 83.7236L170.127 73.6923L170.946 64.2314H115.261Z" fill="#74A6FF"/>
<path d="M233 164.309C235.475 162.88 238.525 162.88 241 164.309L312.674 205.691C315.15 207.12 316.674 209.761 316.674 212.619V295.381C316.674 298.239 315.15 300.88 312.674 302.309L241 343.691C238.525 345.12 235.475 345.12 233 343.691L161.326 302.309C158.85 300.88 157.326 298.239 157.326 295.381V212.619C157.326 209.761 158.85 207.12 161.326 205.691L233 164.309Z" fill="url(#paint2_radial)" fill-opacity="0.8"/>
<g opacity="0.55" filter="url(#filter2_i)">
<path d="M292.201 254C292.201 284.486 267.487 309.2 237.001 309.2C206.515 309.2 181.801 284.486 181.801 254C181.801 223.514 206.515 198.8 237.001 198.8C267.487 198.8 292.201 223.514 292.201 254Z" fill="#5E8CEA"/>
</g>
<g clip-path="url(#clip0)">
<g filter="url(#filter3_di)">
<circle cx="237" cy="254" r="10.0625" fill="url(#paint3_radial)"/>
</g>
<path fill-rule="evenodd" clip-rule="evenodd" d="M237 244.938C231.995 244.938 227.938 248.995 227.938 254C227.938 259.005 231.995 263.062 237 263.062C242.005 263.062 246.062 259.005 246.062 254C246.062 248.995 242.005 244.938 237 244.938ZM225.938 254C225.938 247.89 230.89 242.938 237 242.938C243.11 242.938 248.062 247.89 248.062 254C248.062 260.11 243.11 265.062 237 265.062C230.89 265.062 225.938 260.11 225.938 254Z" fill="#74A6FF"/>
<path fill-rule="evenodd" clip-rule="evenodd" d="M243.635 212.231C235.091 219 225.893 229.932 218.11 243.435C210.327 256.939 205.479 270.378 203.905 281.164C203.117 286.56 203.157 291.239 204.021 294.912C204.883 298.582 206.542 301.151 208.921 302.522C211.3 303.893 214.354 304.04 217.962 302.947C221.573 301.853 225.642 299.542 229.916 296.156C238.46 289.387 247.658 278.454 255.441 264.951C263.223 251.447 268.072 238.009 269.646 227.222C270.433 221.826 270.394 217.147 269.53 213.475C268.667 209.805 267.009 207.236 264.63 205.864C262.251 204.493 259.196 204.346 255.588 205.439C251.978 206.533 247.909 208.844 243.635 212.231ZM255.008 203.525C258.943 202.333 262.614 202.394 265.629 204.131C268.643 205.869 270.536 209.014 271.477 213.017C272.418 217.017 272.434 221.968 271.625 227.511C270.006 238.605 265.05 252.283 257.173 265.95C249.297 279.616 239.945 290.761 231.158 297.723C226.767 301.202 222.475 303.67 218.542 304.861C214.607 306.053 210.936 305.992 207.922 304.255C204.908 302.518 203.015 299.372 202.074 295.369C201.133 291.369 201.117 286.419 201.926 280.875C203.545 269.782 208.501 256.103 216.377 242.437C224.254 228.77 233.605 217.625 242.393 210.663C246.784 207.184 251.076 204.716 255.008 203.525Z" fill="#74A6FF"/>
<path fill-rule="evenodd" clip-rule="evenodd" d="M269.668 281.138C268.085 270.353 263.227 256.918 255.434 243.42C247.641 229.922 238.435 218.997 229.886 212.234C225.609 208.851 221.539 206.543 217.927 205.452C214.318 204.361 211.264 204.511 208.886 205.884C206.508 207.257 204.852 209.827 203.992 213.498C203.131 217.171 203.094 221.85 203.886 227.246C205.468 238.031 210.327 251.466 218.12 264.963C225.913 278.461 235.118 289.386 243.667 296.149C247.944 299.532 252.015 301.84 255.626 302.932C259.235 304.022 262.289 303.873 264.667 302.5C267.046 301.127 268.702 298.556 269.562 294.886C270.423 291.213 270.459 286.533 269.668 281.138ZM271.509 295.342C270.571 299.345 268.68 302.492 265.667 304.232C262.654 305.971 258.984 306.035 255.048 304.846C251.114 303.658 246.82 301.193 242.427 297.718C233.634 290.762 224.274 279.624 216.388 265.963C208.501 252.303 203.534 238.628 201.907 227.536C201.094 221.993 201.107 217.042 202.044 213.041C202.982 209.038 204.873 205.891 207.886 204.152C210.899 202.412 214.57 202.348 218.506 203.537C222.439 204.726 226.733 207.19 231.127 210.666C239.919 217.621 249.279 228.76 257.166 242.42C265.053 256.08 270.019 269.755 271.646 280.847C272.46 286.39 272.447 291.341 271.509 295.342Z" fill="#74A6FF"/>
<path fill-rule="evenodd" clip-rule="evenodd" d="M276.775 238.663C266.646 234.56 252.584 232 237 232C221.416 232 207.354 234.56 197.225 238.663C192.158 240.716 188.124 243.135 185.373 245.77C182.624 248.402 181.219 251.183 181.219 254C181.219 256.817 182.624 259.598 185.373 262.23C188.124 264.865 192.158 267.284 197.225 269.337C207.354 273.44 221.416 276 237 276C252.584 276 266.646 273.44 276.775 269.337C281.842 267.284 285.876 264.865 288.627 262.23C291.376 259.598 292.781 256.817 292.781 254C292.781 251.183 291.376 248.402 288.627 245.77C285.876 243.135 281.842 240.716 276.775 238.663ZM290.011 244.325C293.009 247.196 294.781 250.466 294.781 254C294.781 257.534 293.009 260.804 290.011 263.675C287.015 266.543 282.734 269.081 277.526 271.19C267.104 275.412 252.776 278 237 278C221.224 278 206.896 275.412 196.474 271.19C191.266 269.081 186.985 266.543 183.989 263.675C180.991 260.804 179.219 257.534 179.219 254C179.219 250.466 180.991 247.196 183.989 244.325C186.985 241.457 191.266 238.919 196.474 236.81C206.896 232.588 221.224 230 237 230C252.776 230 267.104 232.588 277.526 236.81C282.734 238.919 287.015 241.457 290.011 244.325Z" fill="#74A6FF"/>
</g>
<path d="M419 164.309C421.475 162.88 424.525 162.88 427 164.309L498.674 205.691C501.15 207.12 502.674 209.761 502.674 212.619V295.381C502.674 298.239 501.15 300.88 498.674 302.309L427 343.691C424.525 345.12 421.475 345.12 419 343.691L347.326 302.309C344.85 300.88 343.326 298.239 343.326 295.381V212.619C343.326 209.761 344.85 207.12 347.326 205.691L419 164.309Z" fill="url(#paint4_radial)" fill-opacity="0.8"/>
<g opacity="0.55" filter="url(#filter4_i)">
<path d="M478.201 254C478.201 284.486 453.487 309.2 423.001 309.2C392.515 309.2 367.801 284.486 367.801 254C367.801 223.514 392.515 198.8 423.001 198.8C453.487 198.8 478.201 223.514 478.201 254Z" fill="#5E8CEA"/>
</g>
<g filter="url(#filter5_di)">
<path d="M419.991 219.023C431.614 213.699 433.905 201.789 433.599 196.5C434.758 197.49 437.098 201.455 437.179 209.399C437.282 219.33 424.8 223.63 418.354 230.796C413.198 236.529 418.457 250.315 421.731 256.492C420.264 255.571 416.206 252.336 411.704 246.766C406.077 239.805 405.463 225.677 419.991 219.023Z" fill="url(#paint5_radial)"/>
<path d="M421.731 236.222C422.385 228.687 436.941 222.23 444.137 219.944C442.261 221.616 437.834 225.697 435.133 228.646C431.757 232.331 429.097 234.379 433.599 242.364C438.1 250.35 434.315 254.956 427.46 260.075C429.506 254.342 428.483 252.704 427.46 250.35C426.437 247.995 420.912 245.64 421.731 236.222Z" fill="url(#paint6_radial)"/>
<path d="M391.14 262.942C387.948 257.454 402.564 256.356 410.272 256.492C405.872 257.686 397.79 260.341 400.655 261.406C410.169 264.273 435.133 262.942 445.467 261.406C423.061 271.644 395.13 269.801 391.14 262.942Z" fill="url(#paint7_radial)"/>
<path d="M463.064 260.075C460.527 252.213 451.639 255.025 447.513 257.413C450.582 257.755 456.803 259.522 457.13 263.863C457.539 269.289 450.787 273.384 446.592 277.684C457.232 273.998 466.236 269.903 463.064 260.075Z" fill="url(#paint8_radial)"/>
<path d="M442.704 275.329L437.179 271.029C426.846 272.565 425.311 272.872 412.523 273.589C402.292 274.162 403.826 271.098 405.872 269.494C400.961 271.439 393.902 275.8 404.952 277.684C421.731 280.305 437.111 277.206 442.704 275.329Z" fill="url(#paint9_radial)"/>
<path d="M403.417 287.717C398.833 283.785 404.645 281.574 408.123 280.96C403.13 286.941 423.572 284.612 434.417 282.7C435.338 283.451 437.814 285.505 440.351 287.717C433.189 291.3 409.146 292.631 403.417 287.717Z" fill="url(#paint10_radial)"/>
<path d="M383.159 297.033C376.775 290.726 391.549 289.082 399.734 289.047C389.503 291.914 390.833 293.723 392.777 294.269C399.359 295.941 417.454 298.63 437.179 296.009C461.836 292.733 454.572 290.276 457.13 289.047C462.655 297.135 444.75 299.797 438.203 300.718C431.655 301.64 391.14 304.916 383.159 297.033Z" fill="url(#paint11_radial)"/>
<path d="M440.351 303.278C426.928 305.325 406.725 304.131 398.301 303.278C395.948 306.554 428.79 307.066 435.133 306.861C441.477 306.656 460.711 305.428 463.064 298.875C464.947 293.634 462.28 295.463 460.711 297.033C459.517 298.261 453.774 301.23 440.351 303.278Z" fill="url(#paint12_radial)"/>
</g>
<path fill-rule="evenodd" clip-rule="evenodd" d="M433.154 195.604C433.512 195.426 433.943 195.479 434.248 195.739C435.016 196.395 435.967 197.819 436.737 200.01C437.517 202.234 438.137 205.321 438.179 209.389C438.236 214.838 434.814 218.659 430.857 221.907C429.5 223.021 428.032 224.104 426.586 225.171C425.926 225.658 425.27 226.142 424.632 226.624C422.567 228.182 420.642 229.748 419.098 231.465C418.004 232.681 417.413 234.38 417.243 236.443C417.073 238.505 417.331 240.852 417.858 243.264C418.913 248.088 421.007 252.992 422.614 256.024C422.826 256.424 422.743 256.916 422.411 257.225C422.079 257.533 421.582 257.58 421.199 257.339C419.619 256.347 415.481 253.03 410.926 247.395C407.933 243.692 406.293 238.125 407.306 232.599C408.328 227.024 412.034 221.568 419.575 218.113C430.675 213.029 432.894 201.625 432.6 196.558C432.577 196.158 432.795 195.783 433.154 195.604ZM434.495 199.755C433.84 205.948 430.503 215.308 420.408 219.932C413.421 223.132 410.17 228.067 409.273 232.96C408.367 237.902 409.848 242.88 412.482 246.138C414.905 249.136 417.189 251.436 418.985 253.047C417.795 250.277 416.623 246.978 415.904 243.691C415.352 241.167 415.057 238.607 415.249 236.279C415.441 233.951 416.127 231.777 417.611 230.127C419.289 228.261 421.342 226.601 423.427 225.028C424.104 224.517 424.78 224.018 425.451 223.523C426.874 222.473 428.271 221.442 429.588 220.361C433.457 217.185 436.226 213.891 436.179 209.41C436.14 205.533 435.549 202.665 434.85 200.673C434.733 200.341 434.614 200.036 434.495 199.755ZM445.005 219.449C445.239 219.859 445.154 220.376 444.802 220.69C442.93 222.359 438.536 226.412 435.871 229.321C435.655 229.556 435.448 229.78 435.248 229.995C434.634 230.655 434.093 231.239 433.623 231.838C433.016 232.613 432.593 233.342 432.378 234.15C431.956 235.736 432.259 237.952 434.47 241.873C436.832 246.063 437.103 249.549 435.702 252.701C434.346 255.749 431.491 258.313 428.058 260.876C427.705 261.14 427.221 261.142 426.866 260.88C426.511 260.618 426.37 260.154 426.518 259.739C427.517 256.94 427.725 255.253 427.615 254.035C427.518 252.961 427.179 252.192 426.734 251.183C426.672 251.043 426.608 250.899 426.543 250.748C426.37 250.349 425.972 249.894 425.285 249.154C425.26 249.126 425.234 249.099 425.208 249.071C424.578 248.393 423.801 247.556 423.079 246.498C421.544 244.251 420.305 241.078 420.734 236.135C420.925 233.944 422.113 231.928 423.761 230.143C425.415 228.351 427.603 226.71 429.957 225.263C434.664 222.367 440.182 220.151 443.834 218.991C444.283 218.848 444.772 219.039 445.005 219.449ZM425.231 231.499C423.74 233.115 422.864 234.732 422.727 236.308C422.338 240.784 423.452 243.498 424.73 245.371C425.367 246.302 426.055 247.044 426.695 247.732L426.783 247.827C427.385 248.476 428.045 249.186 428.377 249.951C428.436 250.087 428.497 250.223 428.558 250.361C429.002 251.36 429.479 252.434 429.607 253.856C429.695 254.838 429.619 255.958 429.313 257.339C431.466 255.517 433.039 253.767 433.874 251.888C434.954 249.461 434.867 246.65 432.727 242.855C430.436 238.791 429.819 235.991 430.445 233.636C430.755 232.472 431.348 231.5 432.049 230.605C432.575 229.933 433.197 229.263 433.825 228.587C434.016 228.382 434.207 228.177 434.396 227.97C435.906 226.322 437.941 224.332 439.777 222.597C436.956 223.746 433.821 225.234 431.005 226.966C428.738 228.361 426.715 229.89 425.231 231.499ZM450.645 257.023C451.69 257.318 452.789 257.721 453.81 258.251C455.901 259.336 457.924 261.097 458.127 263.788C458.366 266.956 456.503 269.615 454.307 271.89C453.269 272.966 452.107 274.005 450.972 275.007C454.346 273.664 457.264 272.206 459.359 270.422C460.848 269.153 461.875 267.755 462.369 266.159C462.862 264.568 462.855 262.683 462.112 260.382C461.539 258.607 460.638 257.512 459.604 256.848C458.556 256.176 457.284 255.892 455.891 255.9C454.134 255.911 452.275 256.387 450.645 257.023ZM460.684 255.165C462.159 256.111 463.32 257.612 464.016 259.768C464.859 262.381 464.916 264.694 464.28 266.75C463.645 268.801 462.351 270.5 460.656 271.944C457.308 274.797 452.219 276.793 446.919 278.629C446.481 278.78 445.996 278.611 445.748 278.22C445.499 277.828 445.552 277.317 445.876 276.985C446.924 275.911 448.122 274.855 449.296 273.819L449.404 273.723C450.625 272.646 451.82 271.587 452.868 270.501C454.994 268.298 456.303 266.196 456.133 263.938C456.008 262.288 454.758 260.996 452.889 260.026C451.047 259.07 448.851 258.568 447.402 258.407C446.973 258.36 446.623 258.042 446.534 257.619C446.445 257.196 446.638 256.764 447.012 256.548C449.158 255.306 452.585 253.92 455.878 253.9C457.54 253.89 459.223 254.228 460.684 255.165ZM396.4 256.632C400.731 255.663 406.403 255.423 410.289 255.492C410.787 255.501 411.203 255.875 411.264 256.369C411.326 256.863 411.014 257.327 410.534 257.457C408.349 258.05 405.281 258.998 403.132 259.917C402.504 260.186 402.005 260.432 401.639 260.643C406.354 261.867 414.425 262.216 422.735 262.057C431.426 261.891 440.206 261.177 445.32 260.417C445.812 260.344 446.284 260.644 446.425 261.122C446.567 261.6 446.335 262.109 445.882 262.316C434.528 267.503 421.798 269.624 411.393 269.585C409.832 269.579 408.32 269.525 406.87 269.424C406.892 269.746 406.758 270.07 406.489 270.281C406.033 270.638 405.67 271.031 405.49 271.366C405.325 271.672 405.388 271.752 405.405 271.773C405.406 271.775 405.407 271.776 405.407 271.776C405.492 271.895 405.862 272.213 407.06 272.433C408.212 272.644 409.945 272.732 412.467 272.59C424.421 271.92 426.488 271.612 435.202 270.313C435.781 270.227 436.39 270.136 437.032 270.04C437.303 270 437.578 270.072 437.794 270.24L443.318 274.54C443.609 274.766 443.752 275.134 443.69 275.497C443.628 275.86 443.372 276.16 443.022 276.277C437.301 278.197 421.758 281.321 404.797 278.672L404.784 278.67C402.001 278.195 400.129 277.537 399.09 276.64C398.539 276.164 398.17 275.575 398.098 274.881C398.027 274.203 398.258 273.587 398.583 273.075C399.212 272.086 400.38 271.201 401.586 270.473C402.377 269.996 403.24 269.554 404.089 269.166C401.807 268.898 399.722 268.505 397.894 267.999C396.075 267.495 394.484 266.872 393.201 266.131C391.924 265.394 390.893 264.506 390.275 263.445C389.788 262.607 389.58 261.743 389.748 260.89C389.914 260.046 390.419 259.367 391.056 258.833C392.293 257.798 394.264 257.11 396.4 256.632ZM403.379 271.751C403.119 271.893 402.865 272.037 402.619 272.185C401.466 272.881 400.639 273.569 400.271 274.148C400.097 274.421 400.078 274.588 400.087 274.674C400.094 274.744 400.132 274.897 400.397 275.126C400.988 275.637 402.375 276.229 405.113 276.697C420.127 279.041 434.011 276.749 440.567 274.933L436.903 272.081C436.424 272.153 435.965 272.221 435.522 272.287C426.74 273.597 424.623 273.912 412.579 274.587C409.984 274.733 408.073 274.652 406.699 274.4C405.371 274.156 404.334 273.715 403.78 272.939C403.501 272.549 403.387 272.142 403.379 271.751ZM400.853 260.399C400.854 260.399 400.86 260.403 400.871 260.411C400.857 260.403 400.852 260.399 400.853 260.399ZM400.991 261.113C400.983 261.125 400.977 261.132 400.977 261.132C400.976 261.132 400.98 261.126 400.991 261.113ZM391.71 261.277C391.66 261.534 391.693 261.904 392.004 262.439C392.384 263.092 393.098 263.762 394.201 264.399C395.296 265.031 396.717 265.598 398.428 266.071C401.848 267.019 406.321 267.566 411.401 267.585C419.468 267.615 428.971 266.312 438.076 263.246C433.503 263.647 428.116 263.955 422.773 264.057C414.063 264.223 405.294 263.848 400.366 262.364C400.346 262.357 400.326 262.351 400.306 262.343C399.902 262.193 399.27 261.878 399.095 261.183C398.911 260.453 399.368 259.901 399.628 259.645C400.204 259.078 401.252 258.546 402.346 258.078C402.645 257.95 402.96 257.822 403.286 257.695C401.042 257.865 398.784 258.148 396.837 258.584C394.754 259.05 393.188 259.657 392.341 260.366C391.936 260.705 391.762 261.012 391.71 261.277ZM408.989 280.459C409.199 280.822 409.16 281.278 408.891 281.601C408.327 282.276 408.345 282.582 408.355 282.632C408.359 282.653 408.412 282.855 408.994 283.105C410.161 283.604 412.389 283.827 415.318 283.79C421.08 283.717 428.84 282.668 434.243 281.715C434.53 281.665 434.824 281.741 435.049 281.925C435.977 282.682 438.461 284.743 441.008 286.963C441.26 287.182 441.385 287.512 441.343 287.843C441.301 288.174 441.097 288.462 440.799 288.611C438.87 289.576 435.904 290.35 432.527 290.906C429.126 291.466 425.223 291.819 421.369 291.903C417.518 291.987 413.688 291.804 410.439 291.281C407.242 290.766 404.423 289.897 402.766 288.476C401.533 287.418 400.8 286.312 400.731 285.148C400.66 283.945 401.311 283.004 402.098 282.333C402.882 281.665 403.914 281.158 404.93 280.784C405.956 280.405 407.031 280.137 407.949 279.975C408.363 279.902 408.778 280.095 408.989 280.459ZM402.728 285.03C402.75 285.405 403.009 286.05 404.068 286.958C405.276 287.993 407.611 288.8 410.757 289.306C413.851 289.804 417.554 289.986 421.325 289.903C425.093 289.821 428.902 289.476 432.202 288.933C434.7 288.521 436.86 288.003 438.48 287.42C436.679 285.872 435.039 284.505 434.138 283.764C428.719 284.702 421.104 285.717 415.344 285.79C412.431 285.826 409.807 285.629 408.206 284.943C407.405 284.599 406.595 284.017 406.395 283.029C406.353 282.821 406.342 282.616 406.357 282.412C406.11 282.488 405.864 282.571 405.622 282.66C404.712 282.996 403.926 283.403 403.396 283.855C402.868 284.305 402.708 284.693 402.728 285.03ZM456.697 288.146C457.142 287.932 457.677 288.075 457.956 288.483C458.723 289.606 459.137 290.714 459.171 291.802C459.205 292.902 458.847 293.884 458.237 294.736C457.056 296.385 454.896 297.592 452.556 298.502C447.826 300.343 441.598 301.25 438.342 301.709C435.038 302.173 423.355 303.215 411.446 303.178C420.627 303.57 431.78 303.574 440.2 302.289C446.864 301.273 451.593 300.032 454.784 298.905C456.38 298.342 457.583 297.81 458.447 297.354C459.331 296.888 459.804 296.531 459.994 296.336L460.003 296.326C460.422 295.907 460.927 295.457 461.43 295.103C461.681 294.927 461.951 294.76 462.224 294.635C462.484 294.516 462.821 294.399 463.184 294.4C463.592 294.401 464.043 294.556 464.357 294.971C464.632 295.334 464.704 295.769 464.711 296.137C464.724 296.872 464.482 297.886 464.005 299.214C463.278 301.239 461.322 302.694 459.021 303.765C456.682 304.854 453.77 305.647 450.787 306.23C444.813 307.397 438.356 307.757 435.165 307.86C431.958 307.964 422.13 307.886 413.397 307.373C409.036 307.116 404.905 306.749 401.997 306.233C400.563 305.978 399.333 305.673 398.517 305.283C398.13 305.098 397.674 304.821 397.405 304.383C397.256 304.14 397.161 303.841 397.184 303.508C397.207 303.183 397.335 302.909 397.489 302.694C397.536 302.629 397.59 302.571 397.649 302.52C396.407 302.388 395.204 302.232 394.051 302.052C391.504 301.653 389.177 301.126 387.215 300.435C385.267 299.75 383.604 298.878 382.457 297.744C381.594 296.892 381.001 296.036 380.744 295.163C380.475 294.25 380.595 293.382 381.044 292.621C381.471 291.897 382.16 291.33 382.938 290.879C383.724 290.423 384.666 290.046 385.69 289.732C389.752 288.484 395.61 288.065 399.73 288.047C400.23 288.045 400.655 288.414 400.724 288.909C400.793 289.405 400.485 289.875 400.004 290.01C397.472 290.72 395.69 291.354 394.47 291.907C393.309 292.432 392.752 292.842 392.52 293.096C392.626 293.157 392.794 293.234 393.036 293.303C399.522 294.948 417.478 297.618 437.048 295.018C443.195 294.201 447.322 293.439 450.095 292.742C452.896 292.038 454.218 291.423 454.846 290.957C455.14 290.739 455.252 290.574 455.303 290.474C455.357 290.367 455.382 290.26 455.411 290.053C455.413 290.037 455.416 290.019 455.418 289.998C455.443 289.811 455.489 289.454 455.653 289.122C455.866 288.69 456.221 288.375 456.697 288.146ZM382.662 294.598C382.787 295.022 383.129 295.597 383.862 296.321C384.71 297.159 386.059 297.908 387.879 298.549C389.686 299.185 391.885 299.688 394.361 300.076C399.312 300.852 405.273 301.152 411.222 301.177C423.123 301.228 434.841 300.181 438.063 299.728C441.355 299.265 447.353 298.381 451.831 296.638C454.095 295.757 455.785 294.724 456.611 293.571C457.005 293.021 457.191 292.462 457.172 291.864C457.167 291.699 457.146 291.525 457.106 291.34C457.1 291.353 457.093 291.366 457.087 291.379C456.872 291.801 456.536 292.193 456.038 292.563C455.08 293.275 453.435 293.965 450.583 294.682C447.704 295.405 443.492 296.179 437.311 297C417.443 299.64 399.219 296.937 392.53 295.238C392.522 295.236 392.514 295.234 392.506 295.231C391.964 295.079 391.269 294.794 390.831 294.259C390.589 293.963 390.409 293.567 390.427 293.094C390.444 292.636 390.644 292.235 390.909 291.903C391.322 291.387 392.01 290.897 392.966 290.41C390.557 290.662 388.182 291.059 386.277 291.644C385.341 291.932 384.552 292.255 383.942 292.609C383.324 292.967 382.953 293.32 382.766 293.638C382.6 293.919 382.549 294.214 382.662 294.598ZM462.58 296.739C462.202 297.005 461.788 297.37 461.423 297.735C461.014 298.153 460.325 298.625 459.38 299.123C458.412 299.634 457.117 300.203 455.45 300.791C452.116 301.968 447.261 303.235 440.502 304.266C431.239 305.679 418.824 305.563 409.197 305.075C410.574 305.189 412.026 305.289 413.515 305.376C422.2 305.887 431.966 305.963 435.101 305.861C438.254 305.76 444.586 305.403 450.403 304.267C453.316 303.698 456.049 302.943 458.177 301.952C460.343 300.943 461.674 299.788 462.123 298.537C462.35 297.907 462.501 297.401 462.594 297.001C462.621 296.884 462.642 296.779 462.659 296.685C462.633 296.702 462.607 296.72 462.58 296.739Z" fill="#74A6FF"/>
<path d="M512 2.3094C514.475 0.88034 517.525 0.880338 520 2.3094L591.674 43.6906C594.15 45.1197 595.674 47.7607 595.674 50.6188V133.381C595.674 136.239 594.15 138.88 591.674 140.309L520 181.691C517.525 183.12 514.475 183.12 512 181.691L440.326 140.309C437.85 138.88 436.326 136.239 436.326 133.381V50.6188C436.326 47.7607 437.85 45.1197 440.326 43.6906L512 2.3094Z" fill="url(#paint13_radial)" fill-opacity="0.8"/>
<g opacity="0.55" filter="url(#filter6_i)">
<path d="M571.201 91.9998C571.201 122.486 546.487 147.2 516.001 147.2C485.515 147.2 460.801 122.486 460.801 91.9998C460.801 61.5137 485.515 36.7998 516.001 36.7998C546.487 36.7998 571.201 61.5137 571.201 91.9998Z" fill="#5E8CEA"/>
</g>
<g filter="url(#filter7_di)">
<path fill-rule="evenodd" clip-rule="evenodd" d="M472.529 46H558.866L550.881 132.853L515.61 142.6L480.426 132.853L472.529 46ZM486.129 63.231L487.358 73.0651L488.586 84.6397L489.639 95.431H529.473L528.508 109.094L515.522 113.098L501.659 110.487L500.87 101.871H490.078L492.008 118.319L515.522 124.237L539.3 118.319L542.283 84.6397H501.659L500.87 74.9797L543.073 74.3705L544.038 63.231H486.129Z" fill="url(#paint14_radial)"/>
</g>
<path fill-rule="evenodd" clip-rule="evenodd" d="M471.434 45H559.961L551.813 133.633L515.609 143.638L479.492 133.632L471.434 45ZM473.624 47L481.359 132.074L515.609 141.562L549.948 132.073L557.769 47H473.624ZM484.996 62.2314H545.127L543.99 75.3577L501.952 75.9645L502.58 83.64H543.374L540.232 119.118L515.52 125.268L491.094 119.121L488.952 100.871H501.781L502.585 109.644L515.463 112.069L527.558 108.341L528.399 96.4314H488.731L487.591 84.7455L487.59 84.7371L486.363 73.1802L484.996 62.2314ZM487.261 64.2314L488.35 72.9507L489.58 84.5429L490.545 94.4314H530.545L529.456 109.848L515.579 114.126L500.731 111.33L499.956 102.871H491.201L492.92 117.518L515.523 123.206L538.366 117.521L541.19 85.64H500.737L499.785 73.9955L542.153 73.384L542.946 64.2314H487.261Z" fill="#74A6FF"/>
<path d="M326 2.3094C328.475 0.88034 331.525 0.880338 334 2.3094L405.674 43.6906C408.15 45.1197 409.674 47.7607 409.674 50.6188V133.381C409.674 136.239 408.15 138.88 405.674 140.309L334 181.691C331.525 183.12 328.475 183.12 326 181.691L254.326 140.309C251.85 138.88 250.326 136.239 250.326 133.381V50.6188C250.326 47.7607 251.85 45.1197 254.326 43.6906L326 2.3094Z" fill="url(#paint15_radial)" fill-opacity="0.8"/>
<g opacity="0.55" filter="url(#filter8_i)">
<path d="M385.201 91.9998C385.201 122.486 360.487 147.2 330.001 147.2C299.515 147.2 274.801 122.486 274.801 91.9998C274.801 61.5137 299.515 36.7998 330.001 36.7998C360.487 36.7998 385.201 61.5137 385.201 91.9998Z" fill="#5E8CEA"/>
</g>
<g filter="url(#filter9_di)">
<path fill-rule="evenodd" clip-rule="evenodd" d="M282.85 64.8496C282.85 53.8039 291.804 44.8496 302.85 44.8496H357.15C368.195 44.8496 377.15 53.8039 377.15 64.8496V119.15C377.15 130.195 368.195 139.15 357.15 139.15H302.85C291.804 139.15 282.85 130.195 282.85 119.15V64.8496ZM311.269 113.868L304.072 117.928C304.152 118.056 304.237 118.192 304.325 118.335C305.96 120.974 309.044 125.955 317.359 125.955C328.283 125.955 330.768 117.897 330.645 113.868V82.2191H321.88V113.868C321.818 115.467 320.828 118.666 317.359 118.666C313.889 118.666 311.853 115.467 311.269 113.868ZM356.666 93.5683L363.402 89.2317C362.417 86.8941 358.64 82.2191 351.406 82.2191C342.364 82.2191 338.212 87.8476 338.212 93.5683C338.212 99.2891 340.519 103.349 347.439 106.671C348.682 107.267 349.8 107.775 350.797 108.227C355.355 110.295 357.404 111.225 357.404 114.329C357.404 118.112 352.975 118.666 351.222 118.666C349.469 118.666 345.593 117.928 342.733 113.222C340.445 114.477 336.797 116.574 335.259 117.466C336.612 120.45 341.7 126.416 351.222 126.416C363.125 126.416 366.077 119.312 366.077 114.329C366.077 109.347 364.513 104.414 355.19 100.581C346.885 97.1669 346.793 95.4137 346.793 93.5683C346.793 91.7229 348.731 89.693 351.222 89.693C353.713 89.693 355.928 92.1843 356.666 93.5683Z" fill="url(#paint16_radial)"/>
</g>
<path fill-rule="evenodd" clip-rule="evenodd" d="M281.85 64.8496C281.85 53.2516 291.252 43.8496 302.85 43.8496H357.15C368.748 43.8496 378.15 53.2516 378.15 64.8496V119.15C378.15 130.748 368.748 140.15 357.15 140.15H302.85C291.252 140.15 281.85 130.748 281.85 119.15V64.8496ZM302.85 45.8496C292.356 45.8496 283.85 54.3562 283.85 64.8496V119.15C283.85 129.643 292.356 138.15 302.85 138.15H357.15C367.643 138.15 376.15 129.643 376.15 119.15V64.8496C376.15 54.3562 367.643 45.8496 357.15 45.8496H302.85Z" fill="#74A6FF"/>
<path fill-rule="evenodd" clip-rule="evenodd" d="M320.88 81.2188H331.645V113.853C331.709 116.053 331.07 119.308 328.932 122.038C326.753 124.821 323.099 126.955 317.358 126.955C312.74 126.955 309.584 125.488 307.375 123.643C305.422 122.012 304.244 120.105 303.474 118.86C303.386 118.718 303.303 118.584 303.225 118.46L302.666 117.572L311.803 112.418L312.208 113.524C312.456 114.203 313.036 115.271 313.933 116.153C314.819 117.025 315.957 117.665 317.358 117.665C318.726 117.665 319.549 117.06 320.074 116.299C320.626 115.498 320.851 114.505 320.88 113.847V81.2188ZM322.88 83.2188V113.887L322.879 113.906C322.843 114.847 322.541 116.243 321.72 117.434C320.867 118.671 319.46 119.665 317.358 119.665C315.29 119.665 313.676 118.706 312.53 117.579C311.783 116.844 311.212 116.016 310.812 115.273L305.473 118.285C306.211 119.457 307.174 120.869 308.657 122.108C310.508 123.654 313.211 124.955 317.358 124.955C322.543 124.955 325.593 123.059 327.357 120.806C329.157 118.506 329.702 115.727 329.646 113.898L329.645 113.883V83.2188H322.88Z" fill="#74A6FF"/>
<path fill-rule="evenodd" clip-rule="evenodd" d="M340.719 85.0334C343.105 82.6977 346.671 81.2188 351.406 81.2188C359.122 81.2188 363.216 86.2139 364.323 88.8432L364.649 89.6174L356.294 94.9965L355.783 94.0386C355.477 93.4633 354.822 92.5952 353.962 91.8803C353.095 91.1593 352.139 90.6926 351.222 90.6926C350.252 90.6926 349.382 91.0881 348.753 91.6714C348.112 92.2666 347.793 92.9849 347.793 93.568C347.793 94.0334 347.803 94.3582 347.897 94.6836C347.985 94.9865 348.165 95.3458 348.595 95.7903C349.502 96.7265 351.432 97.9545 355.57 99.6556C360.347 101.62 363.26 103.916 364.962 106.469C366.669 109.03 367.077 111.731 367.077 114.329C367.077 117 366.287 120.29 363.846 122.921C361.387 125.571 357.379 127.416 351.222 127.416C341.24 127.416 335.834 121.154 334.348 117.879L333.975 117.055L334.757 116.601C336.296 115.709 339.952 113.606 342.252 112.345L343.091 111.885L343.588 112.702C346.23 117.049 349.74 117.665 351.222 117.665C352.029 117.665 353.411 117.533 354.552 117.008C355.644 116.504 356.404 115.713 356.404 114.329C356.404 113.525 356.245 112.974 355.97 112.53C355.686 112.072 355.227 111.642 354.483 111.172C353.732 110.698 352.759 110.224 351.498 109.645C351.15 109.485 350.782 109.318 350.393 109.142C349.393 108.688 348.259 108.173 347.006 107.572C343.447 105.864 340.974 103.918 339.4 101.577C337.819 99.2238 337.212 96.5686 337.212 93.568C337.212 90.4668 338.339 87.3626 340.719 85.0334ZM342.118 86.4627C340.161 88.378 339.212 90.9483 339.212 93.568C339.212 96.2881 339.758 98.5232 341.06 100.461C342.37 102.41 344.51 104.155 347.871 105.769C349.104 106.36 350.206 106.861 351.201 107.312C351.595 107.491 351.971 107.662 352.333 107.828C353.589 108.405 354.674 108.928 355.55 109.481C356.432 110.037 357.166 110.663 357.67 111.477C358.183 112.304 358.404 113.241 358.404 114.329C358.404 116.728 356.949 118.105 355.389 118.824C353.877 119.521 352.167 119.665 351.222 119.665C349.31 119.665 345.422 118.899 342.402 114.547C340.531 115.587 338.132 116.962 336.59 117.852C338.29 120.726 342.981 125.416 351.222 125.416C356.967 125.416 360.387 123.708 362.38 121.561C364.391 119.393 365.077 116.64 365.077 114.329C365.077 111.944 364.703 109.687 363.298 107.578C361.886 105.461 359.355 103.374 354.809 101.505C350.643 99.7925 348.374 98.437 347.159 97.1817C346.528 96.5305 346.166 95.8921 345.977 95.2407C345.794 94.6116 345.793 94.0253 345.793 93.568C345.793 92.3057 346.443 91.0863 347.393 90.2051C348.356 89.3122 349.7 88.6926 351.222 88.6926C352.796 88.6926 354.193 89.4716 355.241 90.3423C355.931 90.9161 356.521 91.5725 356.968 92.1843L362.105 88.8768C360.825 86.6761 357.423 83.2188 351.406 83.2188C347.099 83.2188 344.068 84.554 342.118 86.4627Z" fill="#74A6FF"/>
<defs>
<filter id="filter0_i" x="88.8008" y="28.7998" width="118.4" height="118.4" filterUnits="userSpaceOnUse" color-interpolation-filters="sRGB">
<feFlood flood-opacity="0" result="BackgroundImageFix"/>
<feBlend mode="normal" in="SourceGraphic" in2="BackgroundImageFix" result="shape"/>
<feColorMatrix in="SourceAlpha" type="matrix" values="0 0 0 0 0 0 0 0 0 0 0 0 0 0 0 0 0 0 127 0" result="hardAlpha"/>
<feOffset dx="8" dy="-8"/>
<feGaussianBlur stdDeviation="8"/>
<feComposite in2="hardAlpha" operator="arithmetic" k2="-1" k3="1"/>
<feColorMatrix type="matrix" values="0 0 0 0 0.154687 0 0 0 0 0.254457 0 0 0 0 0.458333 0 0 0 1 0"/>
<feBlend mode="normal" in2="shape" result="effect1_innerShadow"/>
</filter>
<filter id="filter1_di" x="84.5293" y="34" width="118.336" height="127.45" filterUnits="userSpaceOnUse" color-interpolation-filters="sRGB">
<feFlood flood-opacity="0" result="BackgroundImageFix"/>
<feColorMatrix in="SourceAlpha" type="matrix" values="0 0 0 0 0 0 0 0 0 0 0 0 0 0 0 0 0 0 127 0"/>
<feOffset dy="4"/>
<feGaussianBlur stdDeviation="8"/>
<feColorMatrix type="matrix" values="0 0 0 0 0.117647 0 0 0 0 0.145098 0 0 0 0 0.196078 0 0 0 0.4 0"/>
<feBlend mode="normal" in2="BackgroundImageFix" result="effect1_dropShadow"/>
<feBlend mode="normal" in="SourceGraphic" in2="effect1_dropShadow" result="shape"/>
<feColorMatrix in="SourceAlpha" type="matrix" values="0 0 0 0 0 0 0 0 0 0 0 0 0 0 0 0 0 0 127 0" result="hardAlpha"/>
<feOffset/>
<feGaussianBlur stdDeviation="4"/>
<feComposite in2="hardAlpha" operator="arithmetic" k2="-1" k3="1"/>
<feColorMatrix type="matrix" values="0 0 0 0 0.135903 0 0 0 0 0.241804 0 0 0 0 0.429167 0 0 0 0.8 0"/>
<feBlend mode="normal" in2="shape" result="effect2_innerShadow"/>
</filter>
<filter id="filter2_i" x="181.801" y="190.8" width="118.4" height="118.4" filterUnits="userSpaceOnUse" color-interpolation-filters="sRGB">
<feFlood flood-opacity="0" result="BackgroundImageFix"/>
<feBlend mode="normal" in="SourceGraphic" in2="BackgroundImageFix" result="shape"/>
<feColorMatrix in="SourceAlpha" type="matrix" values="0 0 0 0 0 0 0 0 0 0 0 0 0 0 0 0 0 0 127 0" result="hardAlpha"/>
<feOffset dx="8" dy="-8"/>
<feGaussianBlur stdDeviation="8"/>
<feComposite in2="hardAlpha" operator="arithmetic" k2="-1" k3="1"/>
<feColorMatrix type="matrix" values="0 0 0 0 0.154687 0 0 0 0 0.254457 0 0 0 0 0.458333 0 0 0 1 0"/>
<feBlend mode="normal" in2="shape" result="effect1_innerShadow"/>
</filter>
<filter id="filter3_di" x="210.938" y="231.938" width="52.125" height="52.125" filterUnits="userSpaceOnUse" color-interpolation-filters="sRGB">
<feFlood flood-opacity="0" result="BackgroundImageFix"/>
<feColorMatrix in="SourceAlpha" type="matrix" values="0 0 0 0 0 0 0 0 0 0 0 0 0 0 0 0 0 0 127 0"/>
<feOffset dy="4"/>
<feGaussianBlur stdDeviation="8"/>
<feColorMatrix type="matrix" values="0 0 0 0 0.117647 0 0 0 0 0.145098 0 0 0 0 0.196078 0 0 0 0.4 0"/>
<feBlend mode="normal" in2="BackgroundImageFix" result="effect1_dropShadow"/>
<feBlend mode="normal" in="SourceGraphic" in2="effect1_dropShadow" result="shape"/>
<feColorMatrix in="SourceAlpha" type="matrix" values="0 0 0 0 0 0 0 0 0 0 0 0 0 0 0 0 0 0 127 0" result="hardAlpha"/>
<feOffset/>
<feGaussianBlur stdDeviation="4"/>
<feComposite in2="hardAlpha" operator="arithmetic" k2="-1" k3="1"/>
<feColorMatrix type="matrix" values="0 0 0 0 0.135903 0 0 0 0 0.241804 0 0 0 0 0.429167 0 0 0 0.8 0"/>
<feBlend mode="normal" in2="shape" result="effect2_innerShadow"/>
</filter>
<filter id="filter4_i" x="367.801" y="190.8" width="118.4" height="118.4" filterUnits="userSpaceOnUse" color-interpolation-filters="sRGB">
<feFlood flood-opacity="0" result="BackgroundImageFix"/>
<feBlend mode="normal" in="SourceGraphic" in2="BackgroundImageFix" result="shape"/>
<feColorMatrix in="SourceAlpha" type="matrix" values="0 0 0 0 0 0 0 0 0 0 0 0 0 0 0 0 0 0 127 0" result="hardAlpha"/>
<feOffset dx="8" dy="-8"/>
<feGaussianBlur stdDeviation="8"/>
<feComposite in2="hardAlpha" operator="arithmetic" k2="-1" k3="1"/>
<feColorMatrix type="matrix" values="0 0 0 0 0.154687 0 0 0 0 0.254457 0 0 0 0 0.458333 0 0 0 1 0"/>
<feBlend mode="normal" in2="shape" result="effect1_innerShadow"/>
</filter>
<filter id="filter5_di" x="365.602" y="184.5" width="114.11" height="142.4" filterUnits="userSpaceOnUse" color-interpolation-filters="sRGB">
<feFlood flood-opacity="0" result="BackgroundImageFix"/>
<feColorMatrix in="SourceAlpha" type="matrix" values="0 0 0 0 0 0 0 0 0 0 0 0 0 0 0 0 0 0 127 0"/>
<feOffset dy="4"/>
<feGaussianBlur stdDeviation="8"/>
<feColorMatrix type="matrix" values="0 0 0 0 0.117647 0 0 0 0 0.145098 0 0 0 0 0.196078 0 0 0 0.4 0"/>
<feBlend mode="normal" in2="BackgroundImageFix" result="effect1_dropShadow"/>
<feBlend mode="normal" in="SourceGraphic" in2="effect1_dropShadow" result="shape"/>
<feColorMatrix in="SourceAlpha" type="matrix" values="0 0 0 0 0 0 0 0 0 0 0 0 0 0 0 0 0 0 127 0" result="hardAlpha"/>
<feOffset/>
<feGaussianBlur stdDeviation="4"/>
<feComposite in2="hardAlpha" operator="arithmetic" k2="-1" k3="1"/>
<feColorMatrix type="matrix" values="0 0 0 0 0.135903 0 0 0 0 0.241804 0 0 0 0 0.429167 0 0 0 0.8 0"/>
<feBlend mode="normal" in2="shape" result="effect2_innerShadow"/>
</filter>
<filter id="filter6_i" x="460.801" y="28.7998" width="118.4" height="118.4" filterUnits="userSpaceOnUse" color-interpolation-filters="sRGB">
<feFlood flood-opacity="0" result="BackgroundImageFix"/>
<feBlend mode="normal" in="SourceGraphic" in2="BackgroundImageFix" result="shape"/>
<feColorMatrix in="SourceAlpha" type="matrix" values="0 0 0 0 0 0 0 0 0 0 0 0 0 0 0 0 0 0 127 0" result="hardAlpha"/>
<feOffset dx="8" dy="-8"/>
<feGaussianBlur stdDeviation="8"/>
<feComposite in2="hardAlpha" operator="arithmetic" k2="-1" k3="1"/>
<feColorMatrix type="matrix" values="0 0 0 0 0.154687 0 0 0 0 0.254457 0 0 0 0 0.458333 0 0 0 1 0"/>
<feBlend mode="normal" in2="shape" result="effect1_innerShadow"/>
</filter>
<filter id="filter7_di" x="456.529" y="34" width="118.336" height="128.6" filterUnits="userSpaceOnUse" color-interpolation-filters="sRGB">
<feFlood flood-opacity="0" result="BackgroundImageFix"/>
<feColorMatrix in="SourceAlpha" type="matrix" values="0 0 0 0 0 0 0 0 0 0 0 0 0 0 0 0 0 0 127 0"/>
<feOffset dy="4"/>
<feGaussianBlur stdDeviation="8"/>
<feColorMatrix type="matrix" values="0 0 0 0 0.117647 0 0 0 0 0.145098 0 0 0 0 0.196078 0 0 0 0.4 0"/>
<feBlend mode="normal" in2="BackgroundImageFix" result="effect1_dropShadow"/>
<feBlend mode="normal" in="SourceGraphic" in2="effect1_dropShadow" result="shape"/>
<feColorMatrix in="SourceAlpha" type="matrix" values="0 0 0 0 0 0 0 0 0 0 0 0 0 0 0 0 0 0 127 0" result="hardAlpha"/>
<feOffset/>
<feGaussianBlur stdDeviation="4"/>
<feComposite in2="hardAlpha" operator="arithmetic" k2="-1" k3="1"/>
<feColorMatrix type="matrix" values="0 0 0 0 0.135903 0 0 0 0 0.241804 0 0 0 0 0.429167 0 0 0 0.8 0"/>
<feBlend mode="normal" in2="shape" result="effect2_innerShadow"/>
</filter>
<filter id="filter8_i" x="274.801" y="28.7998" width="118.4" height="118.4" filterUnits="userSpaceOnUse" color-interpolation-filters="sRGB">
<feFlood flood-opacity="0" result="BackgroundImageFix"/>
<feBlend mode="normal" in="SourceGraphic" in2="BackgroundImageFix" result="shape"/>
<feColorMatrix in="SourceAlpha" type="matrix" values="0 0 0 0 0 0 0 0 0 0 0 0 0 0 0 0 0 0 127 0" result="hardAlpha"/>
<feOffset dx="8" dy="-8"/>
<feGaussianBlur stdDeviation="8"/>
<feComposite in2="hardAlpha" operator="arithmetic" k2="-1" k3="1"/>
<feColorMatrix type="matrix" values="0 0 0 0 0.154687 0 0 0 0 0.254457 0 0 0 0 0.458333 0 0 0 1 0"/>
<feBlend mode="normal" in2="shape" result="effect1_innerShadow"/>
</filter>
<filter id="filter9_di" x="266.85" y="32.8496" width="126.3" height="126.3" filterUnits="userSpaceOnUse" color-interpolation-filters="sRGB">
<feFlood flood-opacity="0" result="BackgroundImageFix"/>
<feColorMatrix in="SourceAlpha" type="matrix" values="0 0 0 0 0 0 0 0 0 0 0 0 0 0 0 0 0 0 127 0"/>
<feOffset dy="4"/>
<feGaussianBlur stdDeviation="8"/>
<feColorMatrix type="matrix" values="0 0 0 0 0.117647 0 0 0 0 0.145098 0 0 0 0 0.196078 0 0 0 0.4 0"/>
<feBlend mode="normal" in2="BackgroundImageFix" result="effect1_dropShadow"/>
<feBlend mode="normal" in="SourceGraphic" in2="effect1_dropShadow" result="shape"/>
<feColorMatrix in="SourceAlpha" type="matrix" values="0 0 0 0 0 0 0 0 0 0 0 0 0 0 0 0 0 0 127 0" result="hardAlpha"/>
<feOffset/>
<feGaussianBlur stdDeviation="4"/>
<feComposite in2="hardAlpha" operator="arithmetic" k2="-1" k3="1"/>
<feColorMatrix type="matrix" values="0 0 0 0 0.135903 0 0 0 0 0.241804 0 0 0 0 0.429167 0 0 0 0.8 0"/>
<feBlend mode="normal" in2="shape" result="effect2_innerShadow"/>
</filter>
<radialGradient id="paint0_radial" cx="0" cy="0" r="1" gradientUnits="userSpaceOnUse" gradientTransform="translate(144 92) rotate(90) scale(92)">
<stop offset="0.360126" stop-color="#283142"/>
<stop offset="1" stop-color="#3A4C71"/>
</radialGradient>
<radialGradient id="paint1_radial" cx="0" cy="0" r="1" gradientUnits="userSpaceOnUse" gradientTransform="translate(139.52 87.1985) rotate(119.005) scale(62.0318 46.792)">
<stop stop-color="#CBDCFF"/>
<stop offset="1" stop-color="#376EDD"/>
</radialGradient>
<radialGradient id="paint2_radial" cx="0" cy="0" r="1" gradientUnits="userSpaceOnUse" gradientTransform="translate(237 254) rotate(90) scale(92)">
<stop offset="0.360126" stop-color="#283142"/>
<stop offset="1" stop-color="#3A4C71"/>
</radialGradient>
<radialGradient id="paint3_radial" cx="0" cy="0" r="1" gradientUnits="userSpaceOnUse" gradientTransform="translate(236.026 252.624) rotate(121.506) scale(13.4164 10.6329)">
<stop stop-color="#CBDCFF"/>
<stop offset="1" stop-color="#376EDD"/>
</radialGradient>
<radialGradient id="paint4_radial" cx="0" cy="0" r="1" gradientUnits="userSpaceOnUse" gradientTransform="translate(423 254) rotate(90) scale(92)">
<stop offset="0.360126" stop-color="#283142"/>
<stop offset="1" stop-color="#3A4C71"/>
</radialGradient>
<radialGradient id="paint5_radial" cx="0" cy="0" r="1" gradientUnits="userSpaceOnUse" gradientTransform="translate(418.683 244.151) rotate(114.507) scale(68.9617 46.2993)">
<stop stop-color="#CBDCFF"/>
<stop offset="1" stop-color="#376EDD"/>
</radialGradient>
<radialGradient id="paint6_radial" cx="0" cy="0" r="1" gradientUnits="userSpaceOnUse" gradientTransform="translate(418.683 244.151) rotate(114.507) scale(68.9617 46.2993)">
<stop stop-color="#CBDCFF"/>
<stop offset="1" stop-color="#376EDD"/>
</radialGradient>
<radialGradient id="paint7_radial" cx="0" cy="0" r="1" gradientUnits="userSpaceOnUse" gradientTransform="translate(418.683 244.151) rotate(114.507) scale(68.9617 46.2993)">
<stop stop-color="#CBDCFF"/>
<stop offset="1" stop-color="#376EDD"/>
</radialGradient>
<radialGradient id="paint8_radial" cx="0" cy="0" r="1" gradientUnits="userSpaceOnUse" gradientTransform="translate(418.683 244.151) rotate(114.507) scale(68.9617 46.2993)">
<stop stop-color="#CBDCFF"/>
<stop offset="1" stop-color="#376EDD"/>
</radialGradient>
<radialGradient id="paint9_radial" cx="0" cy="0" r="1" gradientUnits="userSpaceOnUse" gradientTransform="translate(418.683 244.151) rotate(114.507) scale(68.9617 46.2993)">
<stop stop-color="#CBDCFF"/>
<stop offset="1" stop-color="#376EDD"/>
</radialGradient>
<radialGradient id="paint10_radial" cx="0" cy="0" r="1" gradientUnits="userSpaceOnUse" gradientTransform="translate(418.683 244.151) rotate(114.507) scale(68.9617 46.2993)">
<stop stop-color="#CBDCFF"/>
<stop offset="1" stop-color="#376EDD"/>
</radialGradient>
<radialGradient id="paint11_radial" cx="0" cy="0" r="1" gradientUnits="userSpaceOnUse" gradientTransform="translate(418.683 244.151) rotate(114.507) scale(68.9617 46.2993)">
<stop stop-color="#CBDCFF"/>
<stop offset="1" stop-color="#376EDD"/>
</radialGradient>
<radialGradient id="paint12_radial" cx="0" cy="0" r="1" gradientUnits="userSpaceOnUse" gradientTransform="translate(418.683 244.151) rotate(114.507) scale(68.9617 46.2993)">
<stop stop-color="#CBDCFF"/>
<stop offset="1" stop-color="#376EDD"/>
</radialGradient>
<radialGradient id="paint13_radial" cx="0" cy="0" r="1" gradientUnits="userSpaceOnUse" gradientTransform="translate(516 92) rotate(90) scale(92)">
<stop offset="0.360126" stop-color="#283142"/>
<stop offset="1" stop-color="#3A4C71"/>
</radialGradient>
<radialGradient id="paint14_radial" cx="0" cy="0" r="1" gradientUnits="userSpaceOnUse" gradientTransform="translate(511.52 87.6949) rotate(118.715) scale(62.6042 46.9228)">
<stop stop-color="#CBDCFF"/>
<stop offset="1" stop-color="#376EDD"/>
</radialGradient>
<radialGradient id="paint15_radial" cx="0" cy="0" r="1" gradientUnits="userSpaceOnUse" gradientTransform="translate(330 92) rotate(90) scale(92)">
<stop offset="0.360126" stop-color="#283142"/>
<stop offset="1" stop-color="#3A4C71"/>
</radialGradient>
<radialGradient id="paint16_radial" cx="0" cy="0" r="1" gradientUnits="userSpaceOnUse" gradientTransform="translate(325.437 85.5518) rotate(121.506) scale(62.8653 49.8229)">
<stop stop-color="#CBDCFF"/>
<stop offset="1" stop-color="#376EDD"/>
</radialGradient>
<clipPath id="clip0">
<rect width="115" height="115" fill="white" transform="translate(179.5 196.5)"/>
</clipPath>
</defs>
</svg>
