<svg width="660" height="346" viewBox="0 0 660 346" fill="none" xmlns="http://www.w3.org/2000/svg">
<path d="M141 2.3094C143.475 0.88034 146.525 0.880338 149 2.3094L220.674 43.6906C223.15 45.1197 224.674 47.7607 224.674 50.6188V133.381C224.674 136.239 223.15 138.88 220.674 140.309L149 181.691C146.525 183.12 143.475 183.12 141 181.691L69.3257 140.309C66.8505 138.88 65.3257 136.239 65.3257 133.381V50.6188C65.3257 47.7607 66.8505 45.1197 69.3257 43.6906L141 2.3094Z" fill="url(#paint0_radial)" fill-opacity="0.8"/>
<g opacity="0.55" filter="url(#filter0_i)">
<path d="M200.201 91.9998C200.201 122.486 175.487 147.2 145.001 147.2C114.515 147.2 89.8008 122.486 89.8008 91.9998C89.8008 61.5137 114.515 36.7998 145.001 36.7998C175.487 36.7998 200.201 61.5137 200.201 91.9998Z" fill="#5E8CEA"/>
</g>
<g filter="url(#filter1_di)">
<path fill-rule="evenodd" clip-rule="evenodd" d="M145.081 87.5195C156.786 87.4757 166.26 77.9742 166.26 66.2598C166.26 54.5184 156.742 45 145 45C133.259 45 123.74 54.5184 123.74 66.2598C123.74 77.9742 133.215 87.4757 144.919 87.5195H139.965C119.263 87.5195 102.48 104.302 102.48 125.004C102.48 130.525 106.956 135 112.476 135H177.524C183.045 135 187.52 130.525 187.52 125.004C187.52 104.302 170.737 87.5195 150.035 87.5195H145.081Z" fill="url(#paint1_radial)"/>
</g>
<path fill-rule="evenodd" clip-rule="evenodd" d="M145 46C133.811 46 124.74 55.0706 124.74 66.2598C124.74 77.449 133.811 86.5197 145 86.5197C156.189 86.5197 165.26 77.449 165.26 66.2598C165.26 55.0706 156.189 46 145 46ZM122.74 66.2598C122.74 53.9661 132.706 44 145 44C157.294 44 167.26 53.9661 167.26 66.2598C167.26 78.5536 157.294 88.5197 145 88.5197C132.706 88.5197 122.74 78.5536 122.74 66.2598Z" fill="#74A6FF"/>
<path fill-rule="evenodd" clip-rule="evenodd" d="M101.48 125.004C101.48 103.75 118.711 86.5195 139.965 86.5195H150.035C171.29 86.5195 188.52 103.75 188.52 125.004C188.52 131.077 183.597 136 177.524 136H112.476C106.403 136 101.48 131.077 101.48 125.004ZM139.965 88.5195C119.815 88.5195 103.48 104.854 103.48 125.004C103.48 129.972 107.508 134 112.476 134H177.524C182.492 134 186.52 129.972 186.52 125.004C186.52 104.854 170.185 88.5195 150.035 88.5195H139.965Z" fill="#74A6FF"/>
<path d="M326 2.3094C328.475 0.88034 331.525 0.880338 334 2.3094L405.674 43.6906C408.15 45.1197 409.674 47.7607 409.674 50.6188V133.381C409.674 136.239 408.15 138.88 405.674 140.309L334 181.691C331.525 183.12 328.475 183.12 326 181.691L254.326 140.309C251.85 138.88 250.326 136.239 250.326 133.381V50.6188C250.326 47.7607 251.85 45.1197 254.326 43.6906L326 2.3094Z" fill="url(#paint2_radial)" fill-opacity="0.8"/>
<g opacity="0.55" filter="url(#filter2_i)">
<path d="M385.201 91.9998C385.201 122.486 360.487 147.2 330.001 147.2C299.515 147.2 274.801 122.486 274.801 91.9998C274.801 61.5137 299.515 36.7998 330.001 36.7998C360.487 36.7998 385.201 61.5137 385.201 91.9998Z" fill="#5E8CEA"/>
</g>
<g filter="url(#filter3_di)">
<path fill-rule="evenodd" clip-rule="evenodd" d="M330.081 87.5195C341.786 87.4757 351.26 77.9742 351.26 66.2598C351.26 54.5184 341.742 45 330 45C318.259 45 308.74 54.5184 308.74 66.2598C308.74 77.9742 318.215 87.4757 329.919 87.5195H324.965C304.263 87.5195 287.48 104.302 287.48 125.004C287.48 130.525 291.956 135 297.476 135H362.524C368.045 135 372.52 130.525 372.52 125.004C372.52 104.302 355.737 87.5195 335.035 87.5195H330.081Z" fill="url(#paint3_radial)"/>
</g>
<path fill-rule="evenodd" clip-rule="evenodd" d="M330 46C318.811 46 309.74 55.0706 309.74 66.2598C309.74 77.449 318.811 86.5197 330 86.5197C341.189 86.5197 350.26 77.449 350.26 66.2598C350.26 55.0706 341.189 46 330 46ZM307.74 66.2598C307.74 53.9661 317.706 44 330 44C342.294 44 352.26 53.9661 352.26 66.2598C352.26 78.5536 342.294 88.5197 330 88.5197C317.706 88.5197 307.74 78.5536 307.74 66.2598Z" fill="#74A6FF"/>
<path fill-rule="evenodd" clip-rule="evenodd" d="M286.48 125.004C286.48 103.75 303.711 86.5195 324.965 86.5195H335.035C356.29 86.5195 373.52 103.75 373.52 125.004C373.52 131.077 368.597 136 362.524 136H297.476C291.403 136 286.48 131.077 286.48 125.004ZM324.965 88.5195C304.815 88.5195 288.48 104.854 288.48 125.004C288.48 129.972 292.508 134 297.476 134H362.524C367.492 134 371.52 129.972 371.52 125.004C371.52 104.854 355.185 88.5195 335.035 88.5195H324.965Z" fill="#74A6FF"/>
<path d="M233 164.309C235.475 162.88 238.525 162.88 241 164.309L312.674 205.691C315.15 207.12 316.674 209.761 316.674 212.619V295.381C316.674 298.239 315.15 300.88 312.674 302.309L241 343.691C238.525 345.12 235.475 345.12 233 343.691L161.326 302.309C158.85 300.88 157.326 298.239 157.326 295.381V212.619C157.326 209.761 158.85 207.12 161.326 205.691L233 164.309Z" fill="url(#paint4_radial)" fill-opacity="0.8"/>
<g opacity="0.55" filter="url(#filter4_i)">
<path d="M292.201 254C292.201 284.486 267.487 309.2 237.001 309.2C206.515 309.2 181.801 284.486 181.801 254C181.801 223.514 206.515 198.8 237.001 198.8C267.487 198.8 292.201 223.514 292.201 254Z" fill="#5E8CEA"/>
</g>
<g filter="url(#filter5_di)">
<path fill-rule="evenodd" clip-rule="evenodd" d="M237.081 249.52C248.786 249.476 258.26 239.974 258.26 228.26C258.26 216.518 248.742 207 237 207C225.259 207 215.74 216.518 215.74 228.26C215.74 239.974 225.215 249.476 236.919 249.52H231.965C211.263 249.52 194.48 266.302 194.48 287.004C194.48 292.525 198.956 297 204.476 297H269.524C275.045 297 279.52 292.525 279.52 287.004C279.52 266.302 262.737 249.52 242.035 249.52H237.081Z" fill="url(#paint5_radial)"/>
</g>
<path fill-rule="evenodd" clip-rule="evenodd" d="M237 208C225.811 208 216.74 217.071 216.74 228.26C216.74 239.449 225.811 248.52 237 248.52C248.189 248.52 257.26 239.449 257.26 228.26C257.26 217.071 248.189 208 237 208ZM214.74 228.26C214.74 215.966 224.706 206 237 206C249.294 206 259.26 215.966 259.26 228.26C259.26 240.554 249.294 250.52 237 250.52C224.706 250.52 214.74 240.554 214.74 228.26Z" fill="#74A6FF"/>
<path fill-rule="evenodd" clip-rule="evenodd" d="M193.48 287.004C193.48 265.75 210.711 248.52 231.965 248.52H242.035C263.29 248.52 280.52 265.75 280.52 287.004C280.52 293.077 275.597 298 269.524 298H204.476C198.403 298 193.48 293.077 193.48 287.004ZM231.965 250.52C211.815 250.52 195.48 266.854 195.48 287.004C195.48 291.972 199.508 296 204.476 296H269.524C274.492 296 278.52 291.972 278.52 287.004C278.52 266.854 262.185 250.52 242.035 250.52H231.965Z" fill="#74A6FF"/>
<path d="M512 2.3094C514.475 0.88034 517.525 0.880338 520 2.3094L591.674 43.6906C594.15 45.1197 595.674 47.7607 595.674 50.6188V133.381C595.674 136.239 594.15 138.88 591.674 140.309L520 181.691C517.525 183.12 514.475 183.12 512 181.691L440.326 140.309C437.85 138.88 436.326 136.239 436.326 133.381V50.6188C436.326 47.7607 437.85 45.1197 440.326 43.6906L512 2.3094Z" fill="url(#paint6_radial)" fill-opacity="0.8"/>
<g opacity="0.55" filter="url(#filter6_i)">
<path d="M571.201 91.9998C571.201 122.486 546.487 147.2 516.001 147.2C485.515 147.2 460.801 122.486 460.801 91.9998C460.801 61.5137 485.515 36.7998 516.001 36.7998C546.487 36.7998 571.201 61.5137 571.201 91.9998Z" fill="#5E8CEA"/>
</g>
<g filter="url(#filter7_di)">
<path fill-rule="evenodd" clip-rule="evenodd" d="M516.081 87.5195C527.786 87.4757 537.26 77.9742 537.26 66.2598C537.26 54.5184 527.742 45 516 45C504.259 45 494.74 54.5184 494.74 66.2598C494.74 77.9742 504.215 87.4757 515.919 87.5195H510.965C490.263 87.5195 473.48 104.302 473.48 125.004C473.48 130.525 477.956 135 483.476 135H548.524C554.045 135 558.52 130.525 558.52 125.004C558.52 104.302 541.737 87.5195 521.035 87.5195H516.081Z" fill="url(#paint7_radial)"/>
</g>
<path fill-rule="evenodd" clip-rule="evenodd" d="M516 46C504.811 46 495.74 55.0706 495.74 66.2598C495.74 77.449 504.811 86.5197 516 86.5197C527.189 86.5197 536.26 77.449 536.26 66.2598C536.26 55.0706 527.189 46 516 46ZM493.74 66.2598C493.74 53.9661 503.706 44 516 44C528.294 44 538.26 53.9661 538.26 66.2598C538.26 78.5536 528.294 88.5197 516 88.5197C503.706 88.5197 493.74 78.5536 493.74 66.2598Z" fill="#74A6FF"/>
<path fill-rule="evenodd" clip-rule="evenodd" d="M472.48 125.004C472.48 103.75 489.711 86.5195 510.965 86.5195H521.035C542.29 86.5195 559.52 103.75 559.52 125.004C559.52 131.077 554.597 136 548.524 136H483.476C477.403 136 472.48 131.077 472.48 125.004ZM510.965 88.5195C490.815 88.5195 474.48 104.854 474.48 125.004C474.48 129.972 478.508 134 483.476 134H548.524C553.492 134 557.52 129.972 557.52 125.004C557.52 104.854 541.185 88.5195 521.035 88.5195H510.965Z" fill="#74A6FF"/>
<path d="M419 164.309C421.475 162.88 424.525 162.88 427 164.309L498.674 205.691C501.15 207.12 502.674 209.761 502.674 212.619V295.381C502.674 298.239 501.15 300.88 498.674 302.309L427 343.691C424.525 345.12 421.475 345.12 419 343.691L347.326 302.309C344.85 300.88 343.326 298.239 343.326 295.381V212.619C343.326 209.761 344.85 207.12 347.326 205.691L419 164.309Z" fill="url(#paint8_radial)" fill-opacity="0.8"/>
<g opacity="0.55" filter="url(#filter8_i)">
<path d="M478.201 254C478.201 284.486 453.487 309.2 423.001 309.2C392.515 309.2 367.801 284.486 367.801 254C367.801 223.514 392.515 198.8 423.001 198.8C453.487 198.8 478.201 223.514 478.201 254Z" fill="#5E8CEA"/>
</g>
<g filter="url(#filter9_di)">
<path fill-rule="evenodd" clip-rule="evenodd" d="M423.081 249.52C434.786 249.476 444.26 239.974 444.26 228.26C444.26 216.518 434.742 207 423 207C411.259 207 401.74 216.518 401.74 228.26C401.74 239.974 411.215 249.476 422.919 249.52H417.965C397.263 249.52 380.48 266.302 380.48 287.004C380.48 292.525 384.956 297 390.476 297H455.524C461.045 297 465.52 292.525 465.52 287.004C465.52 266.302 448.737 249.52 428.035 249.52H423.081Z" fill="url(#paint9_radial)"/>
</g>
<path fill-rule="evenodd" clip-rule="evenodd" d="M423 208C411.811 208 402.74 217.071 402.74 228.26C402.74 239.449 411.811 248.52 423 248.52C434.189 248.52 443.26 239.449 443.26 228.26C443.26 217.071 434.189 208 423 208ZM400.74 228.26C400.74 215.966 410.706 206 423 206C435.294 206 445.26 215.966 445.26 228.26C445.26 240.554 435.294 250.52 423 250.52C410.706 250.52 400.74 240.554 400.74 228.26Z" fill="#74A6FF"/>
<path fill-rule="evenodd" clip-rule="evenodd" d="M379.48 287.004C379.48 265.75 396.711 248.52 417.965 248.52H428.035C449.29 248.52 466.52 265.75 466.52 287.004C466.52 293.077 461.597 298 455.524 298H390.476C384.403 298 379.48 293.077 379.48 287.004ZM417.965 250.52C397.815 250.52 381.48 266.854 381.48 287.004C381.48 291.972 385.508 296 390.476 296H455.524C460.492 296 464.52 291.972 464.52 287.004C464.52 266.854 448.185 250.52 428.035 250.52H417.965Z" fill="#74A6FF"/>
<defs>
<filter id="filter0_i" x="89.8008" y="28.7998" width="118.4" height="118.4" filterUnits="userSpaceOnUse" color-interpolation-filters="sRGB">
<feFlood flood-opacity="0" result="BackgroundImageFix"/>
<feBlend mode="normal" in="SourceGraphic" in2="BackgroundImageFix" result="shape"/>
<feColorMatrix in="SourceAlpha" type="matrix" values="0 0 0 0 0 0 0 0 0 0 0 0 0 0 0 0 0 0 127 0" result="hardAlpha"/>
<feOffset dx="8" dy="-8"/>
<feGaussianBlur stdDeviation="8"/>
<feComposite in2="hardAlpha" operator="arithmetic" k2="-1" k3="1"/>
<feColorMatrix type="matrix" values="0 0 0 0 0.154687 0 0 0 0 0.254457 0 0 0 0 0.458333 0 0 0 1 0"/>
<feBlend mode="normal" in2="shape" result="effect1_innerShadow"/>
</filter>
<filter id="filter1_di" x="86.4805" y="33" width="117.039" height="122" filterUnits="userSpaceOnUse" color-interpolation-filters="sRGB">
<feFlood flood-opacity="0" result="BackgroundImageFix"/>
<feColorMatrix in="SourceAlpha" type="matrix" values="0 0 0 0 0 0 0 0 0 0 0 0 0 0 0 0 0 0 127 0"/>
<feOffset dy="4"/>
<feGaussianBlur stdDeviation="8"/>
<feColorMatrix type="matrix" values="0 0 0 0 0.117647 0 0 0 0 0.145098 0 0 0 0 0.196078 0 0 0 0.4 0"/>
<feBlend mode="normal" in2="BackgroundImageFix" result="effect1_dropShadow"/>
<feBlend mode="normal" in="SourceGraphic" in2="effect1_dropShadow" result="shape"/>
<feColorMatrix in="SourceAlpha" type="matrix" values="0 0 0 0 0 0 0 0 0 0 0 0 0 0 0 0 0 0 127 0" result="hardAlpha"/>
<feOffset/>
<feGaussianBlur stdDeviation="4"/>
<feComposite in2="hardAlpha" operator="arithmetic" k2="-1" k3="1"/>
<feColorMatrix type="matrix" values="0 0 0 0 0.135903 0 0 0 0 0.241804 0 0 0 0 0.429167 0 0 0 0.8 0"/>
<feBlend mode="normal" in2="shape" result="effect2_innerShadow"/>
</filter>
<filter id="filter2_i" x="274.801" y="28.7998" width="118.4" height="118.4" filterUnits="userSpaceOnUse" color-interpolation-filters="sRGB">
<feFlood flood-opacity="0" result="BackgroundImageFix"/>
<feBlend mode="normal" in="SourceGraphic" in2="BackgroundImageFix" result="shape"/>
<feColorMatrix in="SourceAlpha" type="matrix" values="0 0 0 0 0 0 0 0 0 0 0 0 0 0 0 0 0 0 127 0" result="hardAlpha"/>
<feOffset dx="8" dy="-8"/>
<feGaussianBlur stdDeviation="8"/>
<feComposite in2="hardAlpha" operator="arithmetic" k2="-1" k3="1"/>
<feColorMatrix type="matrix" values="0 0 0 0 0.154687 0 0 0 0 0.254457 0 0 0 0 0.458333 0 0 0 1 0"/>
<feBlend mode="normal" in2="shape" result="effect1_innerShadow"/>
</filter>
<filter id="filter3_di" x="271.48" y="33" width="117.039" height="122" filterUnits="userSpaceOnUse" color-interpolation-filters="sRGB">
<feFlood flood-opacity="0" result="BackgroundImageFix"/>
<feColorMatrix in="SourceAlpha" type="matrix" values="0 0 0 0 0 0 0 0 0 0 0 0 0 0 0 0 0 0 127 0"/>
<feOffset dy="4"/>
<feGaussianBlur stdDeviation="8"/>
<feColorMatrix type="matrix" values="0 0 0 0 0.117647 0 0 0 0 0.145098 0 0 0 0 0.196078 0 0 0 0.4 0"/>
<feBlend mode="normal" in2="BackgroundImageFix" result="effect1_dropShadow"/>
<feBlend mode="normal" in="SourceGraphic" in2="effect1_dropShadow" result="shape"/>
<feColorMatrix in="SourceAlpha" type="matrix" values="0 0 0 0 0 0 0 0 0 0 0 0 0 0 0 0 0 0 127 0" result="hardAlpha"/>
<feOffset/>
<feGaussianBlur stdDeviation="4"/>
<feComposite in2="hardAlpha" operator="arithmetic" k2="-1" k3="1"/>
<feColorMatrix type="matrix" values="0 0 0 0 0.135903 0 0 0 0 0.241804 0 0 0 0 0.429167 0 0 0 0.8 0"/>
<feBlend mode="normal" in2="shape" result="effect2_innerShadow"/>
</filter>
<filter id="filter4_i" x="181.801" y="190.8" width="118.4" height="118.4" filterUnits="userSpaceOnUse" color-interpolation-filters="sRGB">
<feFlood flood-opacity="0" result="BackgroundImageFix"/>
<feBlend mode="normal" in="SourceGraphic" in2="BackgroundImageFix" result="shape"/>
<feColorMatrix in="SourceAlpha" type="matrix" values="0 0 0 0 0 0 0 0 0 0 0 0 0 0 0 0 0 0 127 0" result="hardAlpha"/>
<feOffset dx="8" dy="-8"/>
<feGaussianBlur stdDeviation="8"/>
<feComposite in2="hardAlpha" operator="arithmetic" k2="-1" k3="1"/>
<feColorMatrix type="matrix" values="0 0 0 0 0.154687 0 0 0 0 0.254457 0 0 0 0 0.458333 0 0 0 1 0"/>
<feBlend mode="normal" in2="shape" result="effect1_innerShadow"/>
</filter>
<filter id="filter5_di" x="178.48" y="195" width="117.039" height="122" filterUnits="userSpaceOnUse" color-interpolation-filters="sRGB">
<feFlood flood-opacity="0" result="BackgroundImageFix"/>
<feColorMatrix in="SourceAlpha" type="matrix" values="0 0 0 0 0 0 0 0 0 0 0 0 0 0 0 0 0 0 127 0"/>
<feOffset dy="4"/>
<feGaussianBlur stdDeviation="8"/>
<feColorMatrix type="matrix" values="0 0 0 0 0.117647 0 0 0 0 0.145098 0 0 0 0 0.196078 0 0 0 0.4 0"/>
<feBlend mode="normal" in2="BackgroundImageFix" result="effect1_dropShadow"/>
<feBlend mode="normal" in="SourceGraphic" in2="effect1_dropShadow" result="shape"/>
<feColorMatrix in="SourceAlpha" type="matrix" values="0 0 0 0 0 0 0 0 0 0 0 0 0 0 0 0 0 0 127 0" result="hardAlpha"/>
<feOffset/>
<feGaussianBlur stdDeviation="4"/>
<feComposite in2="hardAlpha" operator="arithmetic" k2="-1" k3="1"/>
<feColorMatrix type="matrix" values="0 0 0 0 0.135903 0 0 0 0 0.241804 0 0 0 0 0.429167 0 0 0 0.8 0"/>
<feBlend mode="normal" in2="shape" result="effect2_innerShadow"/>
</filter>
<filter id="filter6_i" x="460.801" y="28.7998" width="118.4" height="118.4" filterUnits="userSpaceOnUse" color-interpolation-filters="sRGB">
<feFlood flood-opacity="0" result="BackgroundImageFix"/>
<feBlend mode="normal" in="SourceGraphic" in2="BackgroundImageFix" result="shape"/>
<feColorMatrix in="SourceAlpha" type="matrix" values="0 0 0 0 0 0 0 0 0 0 0 0 0 0 0 0 0 0 127 0" result="hardAlpha"/>
<feOffset dx="8" dy="-8"/>
<feGaussianBlur stdDeviation="8"/>
<feComposite in2="hardAlpha" operator="arithmetic" k2="-1" k3="1"/>
<feColorMatrix type="matrix" values="0 0 0 0 0.154687 0 0 0 0 0.254457 0 0 0 0 0.458333 0 0 0 1 0"/>
<feBlend mode="normal" in2="shape" result="effect1_innerShadow"/>
</filter>
<filter id="filter7_di" x="457.48" y="33" width="117.039" height="122" filterUnits="userSpaceOnUse" color-interpolation-filters="sRGB">
<feFlood flood-opacity="0" result="BackgroundImageFix"/>
<feColorMatrix in="SourceAlpha" type="matrix" values="0 0 0 0 0 0 0 0 0 0 0 0 0 0 0 0 0 0 127 0"/>
<feOffset dy="4"/>
<feGaussianBlur stdDeviation="8"/>
<feColorMatrix type="matrix" values="0 0 0 0 0.117647 0 0 0 0 0.145098 0 0 0 0 0.196078 0 0 0 0.4 0"/>
<feBlend mode="normal" in2="BackgroundImageFix" result="effect1_dropShadow"/>
<feBlend mode="normal" in="SourceGraphic" in2="effect1_dropShadow" result="shape"/>
<feColorMatrix in="SourceAlpha" type="matrix" values="0 0 0 0 0 0 0 0 0 0 0 0 0 0 0 0 0 0 127 0" result="hardAlpha"/>
<feOffset/>
<feGaussianBlur stdDeviation="4"/>
<feComposite in2="hardAlpha" operator="arithmetic" k2="-1" k3="1"/>
<feColorMatrix type="matrix" values="0 0 0 0 0.135903 0 0 0 0 0.241804 0 0 0 0 0.429167 0 0 0 0.8 0"/>
<feBlend mode="normal" in2="shape" result="effect2_innerShadow"/>
</filter>
<filter id="filter8_i" x="367.801" y="190.8" width="118.4" height="118.4" filterUnits="userSpaceOnUse" color-interpolation-filters="sRGB">
<feFlood flood-opacity="0" result="BackgroundImageFix"/>
<feBlend mode="normal" in="SourceGraphic" in2="BackgroundImageFix" result="shape"/>
<feColorMatrix in="SourceAlpha" type="matrix" values="0 0 0 0 0 0 0 0 0 0 0 0 0 0 0 0 0 0 127 0" result="hardAlpha"/>
<feOffset dx="8" dy="-8"/>
<feGaussianBlur stdDeviation="8"/>
<feComposite in2="hardAlpha" operator="arithmetic" k2="-1" k3="1"/>
<feColorMatrix type="matrix" values="0 0 0 0 0.154687 0 0 0 0 0.254457 0 0 0 0 0.458333 0 0 0 1 0"/>
<feBlend mode="normal" in2="shape" result="effect1_innerShadow"/>
</filter>
<filter id="filter9_di" x="364.48" y="195" width="117.039" height="122" filterUnits="userSpaceOnUse" color-interpolation-filters="sRGB">
<feFlood flood-opacity="0" result="BackgroundImageFix"/>
<feColorMatrix in="SourceAlpha" type="matrix" values="0 0 0 0 0 0 0 0 0 0 0 0 0 0 0 0 0 0 127 0"/>
<feOffset dy="4"/>
<feGaussianBlur stdDeviation="8"/>
<feColorMatrix type="matrix" values="0 0 0 0 0.117647 0 0 0 0 0.145098 0 0 0 0 0.196078 0 0 0 0.4 0"/>
<feBlend mode="normal" in2="BackgroundImageFix" result="effect1_dropShadow"/>
<feBlend mode="normal" in="SourceGraphic" in2="effect1_dropShadow" result="shape"/>
<feColorMatrix in="SourceAlpha" type="matrix" values="0 0 0 0 0 0 0 0 0 0 0 0 0 0 0 0 0 0 127 0" result="hardAlpha"/>
<feOffset/>
<feGaussianBlur stdDeviation="4"/>
<feComposite in2="hardAlpha" operator="arithmetic" k2="-1" k3="1"/>
<feColorMatrix type="matrix" values="0 0 0 0 0.135903 0 0 0 0 0.241804 0 0 0 0 0.429167 0 0 0 0.8 0"/>
<feBlend mode="normal" in2="shape" result="effect2_innerShadow"/>
</filter>
<radialGradient id="paint0_radial" cx="0" cy="0" r="1" gradientUnits="userSpaceOnUse" gradientTransform="translate(145 92) rotate(90) scale(92)">
<stop offset="0.360126" stop-color="#283142"/>
<stop offset="1" stop-color="#3A4C71"/>
</radialGradient>
<radialGradient id="paint1_radial" cx="0" cy="0" r="1" gradientUnits="userSpaceOnUse" gradientTransform="translate(140.885 83.8461) rotate(120.078) scale(59.1138 45.6026)">
<stop stop-color="#CBDCFF"/>
<stop offset="1" stop-color="#376EDD"/>
</radialGradient>
<radialGradient id="paint2_radial" cx="0" cy="0" r="1" gradientUnits="userSpaceOnUse" gradientTransform="translate(330 92) rotate(90) scale(92)">
<stop offset="0.360126" stop-color="#283142"/>
<stop offset="1" stop-color="#3A4C71"/>
</radialGradient>
<radialGradient id="paint3_radial" cx="0" cy="0" r="1" gradientUnits="userSpaceOnUse" gradientTransform="translate(325.885 83.8461) rotate(120.078) scale(59.1138 45.6026)">
<stop stop-color="#CBDCFF"/>
<stop offset="1" stop-color="#376EDD"/>
</radialGradient>
<radialGradient id="paint4_radial" cx="0" cy="0" r="1" gradientUnits="userSpaceOnUse" gradientTransform="translate(237 254) rotate(90) scale(92)">
<stop offset="0.360126" stop-color="#283142"/>
<stop offset="1" stop-color="#3A4C71"/>
</radialGradient>
<radialGradient id="paint5_radial" cx="0" cy="0" r="1" gradientUnits="userSpaceOnUse" gradientTransform="translate(232.885 245.846) rotate(120.078) scale(59.1138 45.6026)">
<stop stop-color="#CBDCFF"/>
<stop offset="1" stop-color="#376EDD"/>
</radialGradient>
<radialGradient id="paint6_radial" cx="0" cy="0" r="1" gradientUnits="userSpaceOnUse" gradientTransform="translate(516 92) rotate(90) scale(92)">
<stop offset="0.360126" stop-color="#283142"/>
<stop offset="1" stop-color="#3A4C71"/>
</radialGradient>
<radialGradient id="paint7_radial" cx="0" cy="0" r="1" gradientUnits="userSpaceOnUse" gradientTransform="translate(511.885 83.8461) rotate(120.078) scale(59.1138 45.6026)">
<stop stop-color="#CBDCFF"/>
<stop offset="1" stop-color="#376EDD"/>
</radialGradient>
<radialGradient id="paint8_radial" cx="0" cy="0" r="1" gradientUnits="userSpaceOnUse" gradientTransform="translate(423 254) rotate(90) scale(92)">
<stop offset="0.360126" stop-color="#283142"/>
<stop offset="1" stop-color="#3A4C71"/>
</radialGradient>
<radialGradient id="paint9_radial" cx="0" cy="0" r="1" gradientUnits="userSpaceOnUse" gradientTransform="translate(418.885 245.846) rotate(120.078) scale(59.1138 45.6026)">
<stop stop-color="#CBDCFF"/>
<stop offset="1" stop-color="#376EDD"/>
</radialGradient>
</defs>
</svg>
