<svg width="16" height="16" viewBox="0 0 16 16" fill="none" xmlns="http://www.w3.org/2000/svg">
<path fill-rule="evenodd" clip-rule="evenodd" d="M2.56453 1.15032C2.17401 0.759791 1.54084 0.75979 1.15032 1.15031C0.759791 1.54084 0.75979 2.174 1.15031 2.56453L6.46097 7.8752L1.15031 13.1859C0.75979 13.5764 0.759791 14.2096 1.15032 14.6001C1.54084 14.9906 2.17401 14.9906 2.56453 14.6001L7.87518 9.28942L7.8752 9.28943L7.87521 9.28942L13.1859 14.6001C13.5764 14.9906 14.2096 14.9906 14.6001 14.6001C14.9906 14.2096 14.9906 13.5764 14.6001 13.1859L9.28942 7.8752L14.6001 2.56453C14.9906 2.174 14.9906 1.54084 14.6001 1.15031C14.2096 0.75979 13.5764 0.759791 13.1859 1.15032L7.87521 6.46099L7.8752 6.46097L7.87518 6.46099L2.56453 1.15032Z" fill="#8C97AC"/>
</svg>
