<svg width="24" height="24" viewBox="0 0 24 24" fill="none" xmlns="http://www.w3.org/2000/svg">
<path fill-rule="evenodd" clip-rule="evenodd" d="M22 12C22 17.5228 17.5228 22 12 22C6.47715 22 2 17.5228 2 12C2 6.47715 6.47715 2 12 2C17.5228 2 22 6.47715 22 12ZM24 12C24 18.6274 18.6274 24 12 24C5.37258 24 0 18.6274 0 12C0 5.37258 5.37258 0 12 0C18.6274 0 24 5.37258 24 12ZM7.29289 7.29289C7.68342 6.90237 8.31659 6.90237 8.70711 7.29289L12.0178 10.6036L12.0178 10.6035L12.0178 10.6036L15.3284 7.29289C15.719 6.90237 16.3521 6.90237 16.7427 7.29289C17.1332 7.68341 17.1332 8.31658 16.7427 8.70711L13.432 12.0178L16.7427 15.3285C17.1332 15.719 17.1332 16.3521 16.7427 16.7427C16.3521 17.1332 15.719 17.1332 15.3284 16.7427L12.0178 13.432L12.0178 13.432L12.0178 13.432L8.70711 16.7427C8.31659 17.1332 7.68342 17.1332 7.29289 16.7427C6.90237 16.3521 6.90237 15.719 7.29289 15.3285L10.6035 12.0178L7.29289 8.70711C6.90237 8.31658 6.90237 7.68341 7.29289 7.29289Z" fill="#F87B7B"/>
</svg>
