<svg width="24" height="24" viewBox="0 0 24 24" fill="none" xmlns="http://www.w3.org/2000/svg">
<path d="M22.2704 11.1566C22.5383 11.4977 22.7429 11.7862 22.8809 12C22.7429 12.2138 22.5383 12.5023 22.2704 12.8434C21.6954 13.5758 20.8566 14.5161 19.8195 15.4413C17.7169 17.3173 14.9491 19 12 19C9.05091 19 6.28314 17.3173 4.18047 15.4413C3.14344 14.5161 2.30458 13.5758 1.72957 12.8434C1.46172 12.5023 1.25711 12.2138 1.11912 12C1.25711 11.7862 1.46172 11.4977 1.72957 11.1566C2.30458 10.4242 3.14344 9.48393 4.18047 8.55868C6.28314 6.68265 9.05091 5 12 5C14.9491 5 17.7169 6.68265 19.8195 8.55868C20.8566 9.48393 21.6954 10.4242 22.2704 11.1566Z" stroke="#B5C1D8" stroke-width="2"/>
<circle cx="12" cy="12" r="4" stroke="#B5C1D8" stroke-width="2"/>
</svg>
