<svg width="24" height="24" viewBox="0 0 24 24" fill="none" xmlns="http://www.w3.org/2000/svg">
<path fill-rule="evenodd" clip-rule="evenodd" d="M23.9169 11.9584C23.9169 5.35448 18.5624 0 11.9584 0C5.35448 0 0 5.35448 0 11.9584C0 17.9267 4.37241 22.8742 10.0901 23.7723V15.416H7.05297V11.9584H10.0901V9.32322C10.0901 6.32644 11.876 4.66998 14.6071 4.66998C15.9154 4.66998 17.2843 4.90372 17.2843 4.90372V7.84671H15.7758C14.2909 7.84671 13.8268 8.76828 13.8268 9.71504V11.9583H17.143L16.6132 15.4159H13.8267V23.7722C19.5444 22.8758 23.9168 17.9283 23.9168 11.9583L23.9169 11.9584Z" fill="#8C97AC"/>
</svg>
