<svg width="24" height="24" viewBox="0 0 24 24" fill="none" xmlns="http://www.w3.org/2000/svg">
<path d="M1 3C1 1.89543 1.89543 1 3 1H21C22.1046 1 23 1.89543 23 3V17C23 18.1046 22.1046 19 21 19H9.35078C9.12371 19 8.9034 19.0773 8.72609 19.2191L4.16247 22.87C4.09699 22.9224 4 22.8758 4 22.7919V19.1C4 19.0448 3.95523 19 3.9 19H3C1.89543 19 1 18.1046 1 17V3Z" stroke="#8C97AC" stroke-width="2"/>
<rect x="5" y="9" width="14" height="2" rx="1" fill="#8C97AC"/>
<rect x="5" y="5" width="14" height="2" rx="1" fill="#8C97AC"/>
<rect x="5" y="13" width="10" height="2" rx="1" fill="#8C97AC"/>
</svg>
