<svg width="24" height="24" viewBox="0 0 24 24" fill="none" xmlns="http://www.w3.org/2000/svg">
<path fill-rule="evenodd" clip-rule="evenodd" d="M1.75259 3.21064C0.569897 4.54117 0 6.28693 0 8C0 11.9264 2.76324 15.6775 5.41789 18.3321C6.77259 19.6868 8.15969 20.8164 9.28038 21.6122C9.83982 22.0095 10.3444 22.3318 10.7546 22.5597C10.9584 22.6729 11.1536 22.7711 11.3297 22.8438C11.4652 22.8999 11.7229 23 12 23C12.2771 23 12.5348 22.8999 12.6703 22.8438C12.8464 22.7711 13.0416 22.6729 13.2454 22.5597C13.6556 22.3318 14.1602 22.0095 14.7196 21.6122C15.8403 20.8164 17.2274 19.6868 18.5821 18.3321C21.2368 15.6775 24 11.9264 24 8C24 6.28693 23.4301 4.54117 22.2474 3.21064C21.0484 1.8617 19.2714 1 17 1C15.1575 1 13.7886 1.90247 12.8652 2.85697C12.5259 3.20774 12.2385 3.57331 12 3.91926C11.7615 3.57331 11.4741 3.20774 11.1348 2.85697C10.2114 1.90247 8.84246 1 7 1C4.72864 1 2.95164 1.8617 1.75259 3.21064ZM2 8C2 11.0736 4.23676 14.3225 6.83211 16.9179C8.10242 18.1882 9.40281 19.2461 10.4384 19.9815C10.9571 20.3499 11.3978 20.6291 11.7259 20.8114C11.8364 20.8728 11.9277 20.9196 12 20.9537C12.0723 20.9196 12.1636 20.8728 12.2741 20.8114C12.6022 20.6291 13.0429 20.3499 13.5616 19.9815C14.5972 19.2461 15.8976 18.1882 17.1679 16.9179C19.7632 14.3225 22 11.0736 22 8C22 6.71307 21.5699 5.45883 20.7526 4.53936C19.9516 3.6383 18.7286 3 17 3C15.8688 3 14.9859 3.54124 14.3027 4.24754C13.6118 4.96175 13.1878 5.78521 13.0146 6.16804C12.8028 6.63605 12.3544 6.81897 12 6.81897C11.6456 6.81897 11.1972 6.63605 10.9854 6.16804C10.8122 5.78521 10.3882 4.96175 9.69732 4.24754C9.01406 3.54124 8.13121 3 7 3C5.27136 3 4.04836 3.6383 3.24741 4.53936C2.4301 5.45883 2 6.71307 2 8ZM11.8427 21.0189C11.8429 21.0188 11.8461 21.0177 11.8521 21.0161C11.8457 21.0183 11.8426 21.0191 11.8427 21.0189ZM12.1573 21.0189C12.1571 21.0188 12.1539 21.0177 12.1479 21.0162C12.1517 21.0174 12.1543 21.0182 12.1558 21.0186C12.1568 21.0189 12.1573 21.019 12.1573 21.0189Z" fill="#5E56F0"/>
</svg>
