<svg width="24" height="24" viewBox="0 0 24 24" fill="none" xmlns="http://www.w3.org/2000/svg">
<path d="M20.4488 20.4497H16.8929V14.8792C16.8929 13.551 16.869 11.8407 15.0432 11.8407C13.1912 11.8407 12.9076 13.2876 12.9076 14.7816V20.4493H9.35177V8.9969H12.7653V10.5622H12.8114C13.1531 9.97803 13.6468 9.49749 14.24 9.17174C14.8332 8.84599 15.5036 8.68724 16.1798 8.71239C19.784 8.71239 20.4488 11.0833 20.4488 14.1674V20.4497ZM5.33927 7.43115C4.93107 7.43125 4.53201 7.31028 4.19256 7.08355C3.85311 6.85683 3.58851 6.53452 3.43224 6.15741C3.27596 5.78029 3.23503 5.3653 3.31461 4.96492C3.39419 4.56453 3.59071 4.19674 3.87932 3.90806C4.16793 3.61937 4.53566 3.42276 4.93601 3.34309C5.33636 3.26341 5.75134 3.30426 6.12848 3.46046C6.50562 3.61665 6.82796 3.88118 7.05476 4.2206C7.28155 4.56001 7.4026 4.95906 7.4026 5.36727C7.4026 5.91457 7.18523 6.43946 6.79829 6.8265C6.41136 7.21353 5.88654 7.43103 5.33927 7.43115ZM7.11718 20.4493H3.55767V8.9969H7.11764L7.11718 20.4493ZM22.2198 0.00155997H1.77055C1.54051 -0.0012364 1.31217 0.0413711 1.09862 0.126943C0.885065 0.212515 0.690487 0.339372 0.526025 0.500248C0.361563 0.661124 0.230447 0.852862 0.140184 1.06448C0.049921 1.2761 0.00228359 1.50345 0 1.73351V22.2664C0.00546405 22.7308 0.195054 23.1741 0.527122 23.4989C0.85919 23.8236 1.30658 24.0033 1.77101 23.9983H22.2198C22.6854 24.0046 23.1345 23.8257 23.4683 23.5009C23.802 23.1761 23.9931 22.7321 23.9995 22.2664V1.72982C23.9929 1.26444 23.8016 0.820769 23.4678 0.496401C23.1341 0.172033 22.6851 -0.00646203 22.2198 0.000178887" fill="#8C97AC"/>
</svg>
