<svg width="68" height="68" viewBox="0 0 68 68" fill="none" xmlns="http://www.w3.org/2000/svg">
<path d="M66 34C66 16.3269 51.6731 2 34 2C16.3269 2 2 16.3269 2 34C2 51.6731 16.3269 66 34 66C51.6731 66 66 51.6731 66 34Z" stroke="white" stroke-width="3"/>
<path d="M10.3477 54.8691C12.4346 44.6662 18.5564 22.8691 33.3042 22.8691C48.052 22.8691 55.1013 44.6662 57.652 54.8691" stroke="white" stroke-width="3"/>
<path d="M16.6094 60.4348C17.7688 52.087 21.3398 34 33.305 34C45.2702 34 49.7688 52.087 51.392 60.4348" stroke="white" stroke-width="3"/>
<path d="M41.753 22.8626L41.7465 22.8528L41.7395 22.8433C40.8871 21.6932 40.6207 20.2535 41.0072 18.4617C41.3636 16.8094 42.2733 14.8771 43.7709 12.6588C45.1484 14.9934 45.9373 16.9813 46.1748 18.6315C46.4316 20.4154 46.0435 21.7776 45.0781 22.7967C44.9701 22.9105 44.8702 23.009 44.7739 23.1034C44.7636 23.1134 44.7534 23.1235 44.7431 23.1335C44.6587 23.2161 44.5735 23.2995 44.4937 23.383C44.3076 23.5776 44.1365 23.7873 43.9857 24.0791C43.763 24.51 43.5999 25.0928 43.4433 26.034L41.9299 24.6353C41.974 24.5231 42.012 24.4221 42.0425 24.3316C42.0995 24.1622 42.1456 23.9868 42.1456 23.8036C42.1456 23.4432 41.9584 23.1664 41.7908 22.9185C41.7781 22.8997 41.7654 22.8811 41.753 22.8626Z" fill="white" stroke="white"/>
<path d="M22.4286 23.141C23.8644 24.7702 23.8644 24.1594 24.0689 26.3994L26.5301 24.7688C26.1197 23.9549 26.1197 23.5486 26.5301 23.141C28.855 20.5615 28.0341 16.7619 24.0703 11.7393C21.296 17.4353 20.7493 21.2349 22.4286 23.141Z" fill="white"/>
</svg>
