<svg width="24" height="24" viewBox="0 0 24 24" fill="none" xmlns="http://www.w3.org/2000/svg">
<rect x="3" y="10" width="18" height="12" rx="1" stroke="#8C97AC" stroke-width="2"/>
<path d="M7 9V6C7 3.23858 9.23858 1 12 1C14.7614 1 17 3.23858 17 6V9" stroke="#8C97AC" stroke-width="2"/>
<path fill-rule="evenodd" clip-rule="evenodd" d="M13 16.7324C13.5978 16.3866 14 15.7403 14 15C14 13.8954 13.1046 13 12 13C10.8954 13 10 13.8954 10 15C10 15.7403 10.4022 16.3866 11 16.7324V18C11 18.5523 11.4477 19 12 19C12.5523 19 13 18.5523 13 18V16.7324Z" fill="#8C97AC"/>
</svg>
