<svg width="136" height="136" viewBox="0 0 136 136" fill="none" xmlns="http://www.w3.org/2000/svg">
<g filter="url(#filter0_d)">
<rect x="24" y="16" width="88" height="88" rx="44" fill="#3B465A"/>
<path fill-rule="evenodd" clip-rule="evenodd" d="M80.2004 31.2779C77.2221 32.3572 75.3241 35.5934 74.0699 40.1411C73.1957 43.3107 72.7493 46.6311 72.3503 49.5988C72.1804 50.8628 72.0191 52.0627 71.837 53.1598L71.5386 54.9576L69.7209 54.8272C67.7558 54.6863 65.9554 56.0812 64.3807 58.9201C63.3084 60.8533 62.5383 63.1345 62.0523 65.1276H66.3797L70.9354 88.0001H73.2808V92.0001H67.6536L63.0978 69.1276H59.5942L32.5726 68.6058L34.7892 77.5088L30.9077 78.4752L27.4297 64.5057L57.9565 65.0952C58.4834 62.639 59.4289 59.601 60.8828 56.9799C62.3854 54.2708 64.7416 51.496 68.129 50.9233C68.1972 50.4377 68.2666 49.9222 68.3393 49.383C68.7503 46.3321 69.2634 42.5239 70.2138 39.0776C71.5195 34.3434 73.8868 29.2926 78.8698 27.5056L78.8899 27.4984L78.9101 27.4917C80.4399 26.9796 81.8193 26.8228 82.9601 27.2364C83.3947 27.394 83.7624 27.6241 84.0594 27.903C85.2271 27.9863 86.5322 28.4299 87.7482 29.3927C89.5479 30.8176 91.0103 33.255 91.7568 37.0029C93.0094 43.2916 93.4205 49.4139 93.4919 52.4751C96.5672 55.301 101.148 61.8352 99.7409 70.3142C99.3206 72.8468 99.0399 75.03 98.8 76.9214L98.7667 77.1837C98.5438 78.9427 98.3463 80.5017 98.0942 81.8032C97.8325 83.1547 97.4769 84.4367 96.8367 85.4955C96.1453 86.6391 95.1648 87.4529 93.847 87.894L92.5774 84.1009C92.968 83.9701 93.1976 83.7833 93.4138 83.4259C93.6812 82.9837 93.9306 82.2644 94.1672 81.0427C94.3937 79.8732 94.5763 78.4332 94.809 76.5972L94.8318 76.4181C95.0723 74.5214 95.3611 72.273 95.7949 69.6593C97.001 62.3932 92.5803 56.8011 90.265 54.9744L89.5038 54.3738V53.4042C89.5038 51.0348 89.1709 44.4967 87.8339 37.7842C87.2137 34.6703 86.1135 33.2004 85.2652 32.5287C84.4052 31.8478 83.6526 31.8551 83.3973 31.912L80.9618 32.4555V31.0682C80.7567 31.1106 80.5047 31.1769 80.2004 31.2779Z" fill="#7FF5FF"/>
</g>
<defs>
<filter id="filter0_d" x="0" y="0" width="136" height="136" filterUnits="userSpaceOnUse" color-interpolation-filters="sRGB">
<feFlood flood-opacity="0" result="BackgroundImageFix"/>
<feColorMatrix in="SourceAlpha" type="matrix" values="0 0 0 0 0 0 0 0 0 0 0 0 0 0 0 0 0 0 127 0"/>
<feOffset dy="8"/>
<feGaussianBlur stdDeviation="12"/>
<feColorMatrix type="matrix" values="0 0 0 0 0.110156 0 0 0 0 0.136929 0 0 0 0 0.1875 0 0 0 0.2 0"/>
<feBlend mode="normal" in2="BackgroundImageFix" result="effect1_dropShadow"/>
<feBlend mode="normal" in="SourceGraphic" in2="effect1_dropShadow" result="shape"/>
</filter>
</defs>
</svg>
