<svg width="16" height="16" viewBox="0 0 16 16" fill="none" xmlns="http://www.w3.org/2000/svg">
<path d="M6.01257 5.96857L7.95358 1.11606C7.97034 1.07415 8.02966 1.07415 8.04642 1.11606L9.98743 5.96857C9.99502 5.98755 10.0134 6 10.0339 6H14.8793C14.9238 6 14.9461 6.05386 14.9146 6.08536L11.5205 9.47948C11.5078 9.49217 11.5029 9.51068 11.5076 9.52799L12.9673 14.8799C12.9791 14.9234 12.9319 14.9592 12.8933 14.936L8.02572 12.0154C8.00989 12.0059 7.99011 12.0059 7.97428 12.0154L3.1067 14.936C3.06807 14.9592 3.02089 14.9234 3.03274 14.8799L4.49237 9.52799C4.49709 9.51068 4.49217 9.49217 4.47948 9.47948L1.08536 6.08536C1.05386 6.05386 1.07617 6 1.12071 6H5.96615C5.98659 6 6.00498 5.98755 6.01257 5.96857Z" stroke="#8C97AC"/>
</svg>
