<svg width="24" height="24" viewBox="0 0 24 24" fill="none" xmlns="http://www.w3.org/2000/svg">
<path d="M2.3021 12.4424C4.34816 11.3538 6.63211 10.4452 8.76611 9.53195C12.4374 8.03612 16.1233 6.56623 19.8464 5.19777C20.5708 4.9646 21.8724 4.73664 22 5.77359C21.9301 7.24137 21.6427 8.70056 21.4455 10.1597C20.945 13.3686 20.3664 16.5665 19.8024 19.7649C19.608 20.8301 18.2264 21.3817 17.3424 20.7C15.2179 19.3137 13.077 17.9411 10.9796 16.5227C10.2925 15.8483 10.9297 14.88 11.5432 14.3984C13.293 12.7325 15.1487 11.3174 16.8071 9.56562C17.2545 8.52205 15.9327 9.40148 15.4968 9.671C13.1012 11.2656 10.7643 12.9575 8.2387 14.359C6.94861 15.0449 5.44499 14.4587 4.15548 14.0759C2.99929 13.6135 1.30503 13.1476 2.30195 12.4426L2.3021 12.4424Z" fill="#8C97AC"/>
</svg>
