<svg width="24" height="24" viewBox="0 0 24 24" fill="none" xmlns="http://www.w3.org/2000/svg">
<g clip-path="url(#clip0)">
<path d="M8.28978 21C15.8373 21 19.9648 14.845 19.9648 9.50753C19.9648 9.33273 19.9612 9.15872 19.9532 8.98543C20.7544 8.4153 21.4507 7.70379 22 6.89385C21.2648 7.21558 20.4736 7.43214 19.6436 7.52978C20.4908 7.02974 21.1412 6.2387 21.448 5.2957C20.6552 5.75835 19.7772 6.09461 18.8424 6.27616C18.0936 5.49105 17.0276 5 15.8472 5C13.5812 5 11.7436 6.80889 11.7436 9.03861C11.7436 9.35559 11.7797 9.66384 11.8501 9.95961C8.43971 9.79069 5.41566 8.18342 3.39179 5.73945C3.03938 6.33634 2.83616 7.02974 2.83616 7.76959C2.83616 9.17094 3.56058 10.4081 4.66218 11.1318C3.98897 11.1113 3.35656 10.9294 2.80381 10.6266C2.80321 10.6436 2.80321 10.6601 2.80321 10.6782C2.80321 12.6343 4.21762 14.2676 6.09518 14.6377C5.75042 14.7301 5.3876 14.7798 5.01318 14.7798C4.74922 14.7798 4.49198 14.7542 4.24198 14.707C4.76439 16.3118 6.2792 17.4797 8.07515 17.5124C6.67074 18.5959 4.90157 19.2413 2.97878 19.2413C2.64798 19.2413 2.3212 19.2227 2 19.1854C3.81602 20.3312 5.97236 20.9997 8.28998 20.9997" fill="#8C97AC"/>
</g>
<defs>
<clipPath id="clip0">
<rect width="24" height="24" fill="white"/>
</clipPath>
</defs>
</svg>
