<svg width="15" height="15" viewBox="0 0 15 15" fill="none" xmlns="http://www.w3.org/2000/svg">
<path fill-rule="evenodd" clip-rule="evenodd" d="M2.56453 1.14836C2.17401 0.757838 1.54084 0.757837 1.15032 1.14836C0.759791 1.53888 0.75979 2.17205 1.15031 2.56257L6.46097 7.87325L1.15031 13.1839C0.75979 13.5744 0.759791 14.2076 1.15032 14.5981C1.54084 14.9887 2.17401 14.9887 2.56453 14.5981L7.87518 9.28746L7.8752 9.28748L7.87521 9.28746L13.1859 14.5981C13.5764 14.9887 14.2096 14.9887 14.6001 14.5981C14.9906 14.2076 14.9906 13.5744 14.6001 13.1839L9.28942 7.87325L14.6001 2.56257C14.9906 2.17205 14.9906 1.53888 14.6001 1.14836C14.2096 0.757837 13.5764 0.757838 13.1859 1.14836L7.87521 6.45903L7.8752 6.45902L7.87518 6.45903L2.56453 1.14836Z" fill="#F0663B"/>
</svg>
