<svg width="24" height="24" viewBox="0 0 24 24" fill="none" xmlns="http://www.w3.org/2000/svg">
<path fill-rule="evenodd" clip-rule="evenodd" d="M0.105792 0.553005C-0.141197 1.04698 0.059027 1.64766 0.553006 1.89465L2.55301 2.89465C3.04698 3.14164 3.64766 2.94141 3.89465 2.44743C4.14164 1.95345 3.94141 1.35278 3.44743 1.10579L1.44743 0.105792C0.953454 -0.141197 0.352781 0.059027 0.105792 0.553005ZM23.8946 0.553005C24.1416 1.04698 23.9414 1.64766 23.4474 1.89465L21.4474 2.89465C20.9535 3.14164 20.3528 2.94141 20.1058 2.44743C19.8588 1.95345 20.059 1.35278 20.553 1.10579L22.553 0.105792C23.047 -0.141197 23.6477 0.059027 23.8946 0.553005ZM12.0002 2.00022C8.68651 2.00022 6.00022 4.68651 6.00022 8.00022C6.00022 10.3377 7.00295 11.5908 8.23255 13.1274L8.28109 13.188C9.2809 14.4378 10.3784 15.8434 10.8105 18.0002H13.1899C13.6221 15.8434 14.7195 14.4378 15.7194 13.188L15.7679 13.1274C16.9975 11.5908 18.0002 10.3377 18.0002 8.00022C18.0002 4.68651 15.3139 2.00022 12.0002 2.00022ZM15.0002 20.0002V21.0002C15.0002 22.6571 13.6571 24.0002 12.0002 24.0002C10.3434 24.0002 9.00022 22.6571 9.00022 21.0002V20.0002C9.00022 17.3582 7.93978 15.963 6.71935 14.4374L6.61368 14.3055C5.38954 12.7779 4.00022 11.0441 4.00022 8.00022C4.00022 3.58194 7.58194 0.000219048 12.0002 0.000219048C16.4185 0.000219048 20.0002 3.58194 20.0002 8.00022C20.0002 11.0441 18.6109 12.7779 17.3868 14.3055L17.2811 14.4374C16.0607 15.963 15.0002 17.3582 15.0002 20.0002ZM11.0002 20.0002V21.0002C11.0002 21.5525 11.4479 22.0002 12.0002 22.0002C12.5525 22.0002 13.0002 21.5525 13.0002 21.0002V20.0002H11.0002ZM21.4474 13.1058C20.9535 12.8588 20.3528 13.059 20.1058 13.553C19.8588 14.047 20.059 14.6477 20.553 14.8946L22.553 15.8946C23.047 16.1416 23.6477 15.9414 23.8946 15.4474C24.1416 14.9535 23.9414 14.3528 23.4474 14.1058L21.4474 13.1058ZM2.55301 13.1058C3.04698 12.8588 3.64766 13.059 3.89465 13.553C4.14164 14.047 3.94141 14.6477 3.44743 14.8946L1.44743 15.8946C0.953454 16.1416 0.352781 15.9414 0.105792 15.4474C-0.141197 14.9535 0.059027 14.3528 0.553006 14.1058L2.55301 13.1058Z" fill="#fff"/>
</svg>
