<svg width="16" height="16" viewBox="0 0 16 16" fill="none" xmlns="http://www.w3.org/2000/svg">
<path fill-rule="evenodd" clip-rule="evenodd" d="M8 14C11.3137 14 14 11.3137 14 8C14 4.68629 11.3137 2 8 2C4.68629 2 2 4.68629 2 8C2 11.3137 4.68629 14 8 14ZM8 16C12.4183 16 16 12.4183 16 8C16 3.58172 12.4183 0 8 0C3.58172 0 0 3.58172 0 8C0 12.4183 3.58172 16 8 16ZM7 5C7 4.44772 7.44772 4 8 4C8.55229 4 9 4.44772 9 5V8C9 8.55229 8.55229 9 8 9C7.44772 9 7 8.55229 7 8V5ZM8 10C7.44772 10 7 10.4477 7 11C7 11.5523 7.44772 12 8 12C8.55229 12 9 11.5523 9 11C9 10.4477 8.55229 10 8 10Z" fill="#F87B7B"/>
</svg>
