<svg width="23" height="23" viewBox="0 0 23 23" fill="none" xmlns="http://www.w3.org/2000/svg">
<path fill-rule="evenodd" clip-rule="evenodd" d="M11.5 23C17.8513 23 23 17.8513 23 11.5C23 5.14873 17.8513 0 11.5 0C5.14873 0 0 5.14873 0 11.5C0 17.8513 5.14873 23 11.5 23ZM7.48177 15.7715C8.6224 16.89 10.0953 17.4492 11.9003 17.4492C13.7608 17.4492 15.4163 16.8346 16.867 15.6054V10.5556H11.8173V12.7649H14.392V14.426C13.7386 14.8911 12.9358 15.1236 11.9834 15.1236C10.9535 15.1236 10.1063 14.7748 9.44188 14.0771C8.78851 13.3795 8.46182 12.4991 8.46182 11.436V11.4028C8.46182 10.4061 8.78297 9.55339 9.42527 8.84464C10.0786 8.1359 10.8704 7.78153 11.8007 7.78153C12.4319 7.78153 12.9745 7.8812 13.4285 8.08053C13.8937 8.26879 14.3643 8.56226 14.8405 8.96092L16.4518 7.01742C15.8205 6.47479 15.1506 6.07613 14.4418 5.82142C13.7331 5.55565 12.8804 5.42276 11.8837 5.42276C10.1451 5.42276 8.69438 6.00968 7.5316 7.18353C6.36882 8.34631 5.78744 9.76379 5.78744 11.436V11.4692C5.78744 13.2078 6.35221 14.6419 7.48177 15.7715Z" fill="url(#paint0_linear)"/>
<defs>
<linearGradient id="paint0_linear" x1="-2.75" y1="-3.53846" x2="33.2224" y2="-1.02143" gradientUnits="userSpaceOnUse">
<stop stop-color="#133983"/>
<stop offset="1" stop-color="#71BC6F"/>
</linearGradient>
</defs>
</svg>
